<mxfile host="app.diagrams.net" agent="Mozilla/5.0 (Windows NT 10.0; Win64; x64) AppleWebKit/537.36 (KHTML, like Gecko) Chrome/139.0.0.0 Safari/537.36 Edg/139.0.0.0" version="28.1.1">
  <diagram name="Page-1" id="XUSlKl80u0VkjJxmAcLJ">
    <mxGraphModel dx="3070" dy="1936" grid="0" gridSize="10" guides="1" tooltips="1" connect="1" arrows="1" fold="1" page="0" pageScale="1" pageWidth="1169" pageHeight="827" math="0" shadow="0">
      <root>
        <mxCell id="0" />
        <mxCell id="1" parent="0" />
        <mxCell id="9e8LTtCVws6JlIJ1aQSF-1" value="USERS" style="shape=table;startSize=25;container=1;collapsible=0;childLayout=tableLayout;fixedRows=1;rowLines=1;fontStyle=1;align=center;resizeLast=1;fontSize=18;fillColor=#b1ddf0;strokeColor=#10739e;" vertex="1" parent="1">
          <mxGeometry x="171" y="-29" width="327" height="475" as="geometry" />
        </mxCell>
        <mxCell id="9e8LTtCVws6JlIJ1aQSF-2" style="shape=tableRow;horizontal=0;startSize=0;swimlaneHead=0;swimlaneBody=0;fillColor=none;collapsible=0;dropTarget=0;points=[[0,0.5],[1,0.5]];portConstraint=eastwest;top=0;left=0;right=0;bottom=0;align=center;fontSize=18;" vertex="1" parent="9e8LTtCVws6JlIJ1aQSF-1">
          <mxGeometry y="25" width="327" height="45" as="geometry" />
        </mxCell>
        <mxCell id="9e8LTtCVws6JlIJ1aQSF-3" value="string" style="shape=partialRectangle;connectable=0;fillColor=none;top=0;left=0;bottom=0;right=0;align=center;spacingLeft=2;overflow=hidden;fontSize=18;" vertex="1" parent="9e8LTtCVws6JlIJ1aQSF-2">
          <mxGeometry width="94.21435546875" height="45" as="geometry">
            <mxRectangle width="94.21435546875" height="45" as="alternateBounds" />
          </mxGeometry>
        </mxCell>
        <mxCell id="9e8LTtCVws6JlIJ1aQSF-4" value="id" style="shape=partialRectangle;connectable=0;fillColor=none;top=0;left=0;bottom=0;right=0;align=center;spacingLeft=2;overflow=hidden;fontSize=18;" vertex="1" parent="9e8LTtCVws6JlIJ1aQSF-2">
          <mxGeometry x="94.21435546875" width="168.9998779296875" height="45" as="geometry">
            <mxRectangle width="168.9998779296875" height="45" as="alternateBounds" />
          </mxGeometry>
        </mxCell>
        <mxCell id="9e8LTtCVws6JlIJ1aQSF-5" value="PK" style="shape=partialRectangle;connectable=0;fillColor=none;top=0;left=0;bottom=0;right=0;align=center;spacingLeft=2;overflow=hidden;fontSize=18;" vertex="1" parent="9e8LTtCVws6JlIJ1aQSF-2">
          <mxGeometry x="263.2142333984375" width="63.7857666015625" height="45" as="geometry">
            <mxRectangle width="63.7857666015625" height="45" as="alternateBounds" />
          </mxGeometry>
        </mxCell>
        <mxCell id="9e8LTtCVws6JlIJ1aQSF-6" style="shape=tableRow;horizontal=0;startSize=0;swimlaneHead=0;swimlaneBody=0;fillColor=none;collapsible=0;dropTarget=0;points=[[0,0.5],[1,0.5]];portConstraint=eastwest;top=0;left=0;right=0;bottom=0;align=center;fontSize=18;" vertex="1" parent="9e8LTtCVws6JlIJ1aQSF-1">
          <mxGeometry y="70" width="327" height="45" as="geometry" />
        </mxCell>
        <mxCell id="9e8LTtCVws6JlIJ1aQSF-7" value="string" style="shape=partialRectangle;connectable=0;fillColor=none;top=0;left=0;bottom=0;right=0;align=center;spacingLeft=2;overflow=hidden;fontSize=18;" vertex="1" parent="9e8LTtCVws6JlIJ1aQSF-6">
          <mxGeometry width="94.21435546875" height="45" as="geometry">
            <mxRectangle width="94.21435546875" height="45" as="alternateBounds" />
          </mxGeometry>
        </mxCell>
        <mxCell id="9e8LTtCVws6JlIJ1aQSF-8" value="name" style="shape=partialRectangle;connectable=0;fillColor=none;top=0;left=0;bottom=0;right=0;align=center;spacingLeft=2;overflow=hidden;fontSize=18;" vertex="1" parent="9e8LTtCVws6JlIJ1aQSF-6">
          <mxGeometry x="94.21435546875" width="168.9998779296875" height="45" as="geometry">
            <mxRectangle width="168.9998779296875" height="45" as="alternateBounds" />
          </mxGeometry>
        </mxCell>
        <mxCell id="9e8LTtCVws6JlIJ1aQSF-9" value="" style="shape=partialRectangle;connectable=0;fillColor=none;top=0;left=0;bottom=0;right=0;align=center;spacingLeft=2;overflow=hidden;fontSize=18;" vertex="1" parent="9e8LTtCVws6JlIJ1aQSF-6">
          <mxGeometry x="263.2142333984375" width="63.7857666015625" height="45" as="geometry">
            <mxRectangle width="63.7857666015625" height="45" as="alternateBounds" />
          </mxGeometry>
        </mxCell>
        <mxCell id="9e8LTtCVws6JlIJ1aQSF-10" style="shape=tableRow;horizontal=0;startSize=0;swimlaneHead=0;swimlaneBody=0;fillColor=none;collapsible=0;dropTarget=0;points=[[0,0.5],[1,0.5]];portConstraint=eastwest;top=0;left=0;right=0;bottom=0;align=center;fontSize=18;" vertex="1" parent="9e8LTtCVws6JlIJ1aQSF-1">
          <mxGeometry y="115" width="327" height="45" as="geometry" />
        </mxCell>
        <mxCell id="9e8LTtCVws6JlIJ1aQSF-11" value="string" style="shape=partialRectangle;connectable=0;fillColor=none;top=0;left=0;bottom=0;right=0;align=center;spacingLeft=2;overflow=hidden;fontSize=18;" vertex="1" parent="9e8LTtCVws6JlIJ1aQSF-10">
          <mxGeometry width="94.21435546875" height="45" as="geometry">
            <mxRectangle width="94.21435546875" height="45" as="alternateBounds" />
          </mxGeometry>
        </mxCell>
        <mxCell id="9e8LTtCVws6JlIJ1aQSF-12" value="email" style="shape=partialRectangle;connectable=0;fillColor=none;top=0;left=0;bottom=0;right=0;align=center;spacingLeft=2;overflow=hidden;fontSize=18;" vertex="1" parent="9e8LTtCVws6JlIJ1aQSF-10">
          <mxGeometry x="94.21435546875" width="168.9998779296875" height="45" as="geometry">
            <mxRectangle width="168.9998779296875" height="45" as="alternateBounds" />
          </mxGeometry>
        </mxCell>
        <mxCell id="9e8LTtCVws6JlIJ1aQSF-13" value="" style="shape=partialRectangle;connectable=0;fillColor=none;top=0;left=0;bottom=0;right=0;align=center;spacingLeft=2;overflow=hidden;fontSize=18;" vertex="1" parent="9e8LTtCVws6JlIJ1aQSF-10">
          <mxGeometry x="263.2142333984375" width="63.7857666015625" height="45" as="geometry">
            <mxRectangle width="63.7857666015625" height="45" as="alternateBounds" />
          </mxGeometry>
        </mxCell>
        <mxCell id="9e8LTtCVws6JlIJ1aQSF-14" style="shape=tableRow;horizontal=0;startSize=0;swimlaneHead=0;swimlaneBody=0;fillColor=none;collapsible=0;dropTarget=0;points=[[0,0.5],[1,0.5]];portConstraint=eastwest;top=0;left=0;right=0;bottom=0;align=center;fontSize=18;" vertex="1" parent="9e8LTtCVws6JlIJ1aQSF-1">
          <mxGeometry y="160" width="327" height="45" as="geometry" />
        </mxCell>
        <mxCell id="9e8LTtCVws6JlIJ1aQSF-15" value="string" style="shape=partialRectangle;connectable=0;fillColor=none;top=0;left=0;bottom=0;right=0;align=center;spacingLeft=2;overflow=hidden;fontSize=18;" vertex="1" parent="9e8LTtCVws6JlIJ1aQSF-14">
          <mxGeometry width="94.21435546875" height="45" as="geometry">
            <mxRectangle width="94.21435546875" height="45" as="alternateBounds" />
          </mxGeometry>
        </mxCell>
        <mxCell id="9e8LTtCVws6JlIJ1aQSF-16" value="phoneNumber" style="shape=partialRectangle;connectable=0;fillColor=none;top=0;left=0;bottom=0;right=0;align=center;spacingLeft=2;overflow=hidden;fontSize=18;" vertex="1" parent="9e8LTtCVws6JlIJ1aQSF-14">
          <mxGeometry x="94.21435546875" width="168.9998779296875" height="45" as="geometry">
            <mxRectangle width="168.9998779296875" height="45" as="alternateBounds" />
          </mxGeometry>
        </mxCell>
        <mxCell id="9e8LTtCVws6JlIJ1aQSF-17" value="" style="shape=partialRectangle;connectable=0;fillColor=none;top=0;left=0;bottom=0;right=0;align=center;spacingLeft=2;overflow=hidden;fontSize=18;" vertex="1" parent="9e8LTtCVws6JlIJ1aQSF-14">
          <mxGeometry x="263.2142333984375" width="63.7857666015625" height="45" as="geometry">
            <mxRectangle width="63.7857666015625" height="45" as="alternateBounds" />
          </mxGeometry>
        </mxCell>
        <mxCell id="9e8LTtCVws6JlIJ1aQSF-18" style="shape=tableRow;horizontal=0;startSize=0;swimlaneHead=0;swimlaneBody=0;fillColor=none;collapsible=0;dropTarget=0;points=[[0,0.5],[1,0.5]];portConstraint=eastwest;top=0;left=0;right=0;bottom=0;align=center;fontSize=18;" vertex="1" parent="9e8LTtCVws6JlIJ1aQSF-1">
          <mxGeometry y="205" width="327" height="45" as="geometry" />
        </mxCell>
        <mxCell id="9e8LTtCVws6JlIJ1aQSF-19" value="string" style="shape=partialRectangle;connectable=0;fillColor=none;top=0;left=0;bottom=0;right=0;align=center;spacingLeft=2;overflow=hidden;fontSize=18;" vertex="1" parent="9e8LTtCVws6JlIJ1aQSF-18">
          <mxGeometry width="94.21435546875" height="45" as="geometry">
            <mxRectangle width="94.21435546875" height="45" as="alternateBounds" />
          </mxGeometry>
        </mxCell>
        <mxCell id="9e8LTtCVws6JlIJ1aQSF-20" value="address" style="shape=partialRectangle;connectable=0;fillColor=none;top=0;left=0;bottom=0;right=0;align=center;spacingLeft=2;overflow=hidden;fontSize=18;" vertex="1" parent="9e8LTtCVws6JlIJ1aQSF-18">
          <mxGeometry x="94.21435546875" width="168.9998779296875" height="45" as="geometry">
            <mxRectangle width="168.9998779296875" height="45" as="alternateBounds" />
          </mxGeometry>
        </mxCell>
        <mxCell id="9e8LTtCVws6JlIJ1aQSF-21" value="" style="shape=partialRectangle;connectable=0;fillColor=none;top=0;left=0;bottom=0;right=0;align=center;spacingLeft=2;overflow=hidden;fontSize=18;" vertex="1" parent="9e8LTtCVws6JlIJ1aQSF-18">
          <mxGeometry x="263.2142333984375" width="63.7857666015625" height="45" as="geometry">
            <mxRectangle width="63.7857666015625" height="45" as="alternateBounds" />
          </mxGeometry>
        </mxCell>
        <mxCell id="9e8LTtCVws6JlIJ1aQSF-22" style="shape=tableRow;horizontal=0;startSize=0;swimlaneHead=0;swimlaneBody=0;fillColor=none;collapsible=0;dropTarget=0;points=[[0,0.5],[1,0.5]];portConstraint=eastwest;top=0;left=0;right=0;bottom=0;align=center;fontSize=18;" vertex="1" parent="9e8LTtCVws6JlIJ1aQSF-1">
          <mxGeometry y="250" width="327" height="45" as="geometry" />
        </mxCell>
        <mxCell id="9e8LTtCVws6JlIJ1aQSF-23" value="string" style="shape=partialRectangle;connectable=0;fillColor=none;top=0;left=0;bottom=0;right=0;align=center;spacingLeft=2;overflow=hidden;fontSize=18;" vertex="1" parent="9e8LTtCVws6JlIJ1aQSF-22">
          <mxGeometry width="94.21435546875" height="45" as="geometry">
            <mxRectangle width="94.21435546875" height="45" as="alternateBounds" />
          </mxGeometry>
        </mxCell>
        <mxCell id="9e8LTtCVws6JlIJ1aQSF-24" value="profileImageUrl" style="shape=partialRectangle;connectable=0;fillColor=none;top=0;left=0;bottom=0;right=0;align=center;spacingLeft=2;overflow=hidden;fontSize=18;" vertex="1" parent="9e8LTtCVws6JlIJ1aQSF-22">
          <mxGeometry x="94.21435546875" width="168.9998779296875" height="45" as="geometry">
            <mxRectangle width="168.9998779296875" height="45" as="alternateBounds" />
          </mxGeometry>
        </mxCell>
        <mxCell id="9e8LTtCVws6JlIJ1aQSF-25" value="" style="shape=partialRectangle;connectable=0;fillColor=none;top=0;left=0;bottom=0;right=0;align=center;spacingLeft=2;overflow=hidden;fontSize=18;" vertex="1" parent="9e8LTtCVws6JlIJ1aQSF-22">
          <mxGeometry x="263.2142333984375" width="63.7857666015625" height="45" as="geometry">
            <mxRectangle width="63.7857666015625" height="45" as="alternateBounds" />
          </mxGeometry>
        </mxCell>
        <mxCell id="9e8LTtCVws6JlIJ1aQSF-26" style="shape=tableRow;horizontal=0;startSize=0;swimlaneHead=0;swimlaneBody=0;fillColor=none;collapsible=0;dropTarget=0;points=[[0,0.5],[1,0.5]];portConstraint=eastwest;top=0;left=0;right=0;bottom=0;align=center;fontSize=18;" vertex="1" parent="9e8LTtCVws6JlIJ1aQSF-1">
          <mxGeometry y="295" width="327" height="45" as="geometry" />
        </mxCell>
        <mxCell id="9e8LTtCVws6JlIJ1aQSF-27" value="string" style="shape=partialRectangle;connectable=0;fillColor=none;top=0;left=0;bottom=0;right=0;align=center;spacingLeft=2;overflow=hidden;fontSize=18;" vertex="1" parent="9e8LTtCVws6JlIJ1aQSF-26">
          <mxGeometry width="94.21435546875" height="45" as="geometry">
            <mxRectangle width="94.21435546875" height="45" as="alternateBounds" />
          </mxGeometry>
        </mxCell>
        <mxCell id="9e8LTtCVws6JlIJ1aQSF-28" value="token" style="shape=partialRectangle;connectable=0;fillColor=none;top=0;left=0;bottom=0;right=0;align=center;spacingLeft=2;overflow=hidden;fontSize=18;" vertex="1" parent="9e8LTtCVws6JlIJ1aQSF-26">
          <mxGeometry x="94.21435546875" width="168.9998779296875" height="45" as="geometry">
            <mxRectangle width="168.9998779296875" height="45" as="alternateBounds" />
          </mxGeometry>
        </mxCell>
        <mxCell id="9e8LTtCVws6JlIJ1aQSF-29" value="" style="shape=partialRectangle;connectable=0;fillColor=none;top=0;left=0;bottom=0;right=0;align=center;spacingLeft=2;overflow=hidden;fontSize=18;" vertex="1" parent="9e8LTtCVws6JlIJ1aQSF-26">
          <mxGeometry x="263.2142333984375" width="63.7857666015625" height="45" as="geometry">
            <mxRectangle width="63.7857666015625" height="45" as="alternateBounds" />
          </mxGeometry>
        </mxCell>
        <mxCell id="9e8LTtCVws6JlIJ1aQSF-30" style="shape=tableRow;horizontal=0;startSize=0;swimlaneHead=0;swimlaneBody=0;fillColor=none;collapsible=0;dropTarget=0;points=[[0,0.5],[1,0.5]];portConstraint=eastwest;top=0;left=0;right=0;bottom=0;align=center;fontSize=18;" vertex="1" parent="9e8LTtCVws6JlIJ1aQSF-1">
          <mxGeometry y="340" width="327" height="45" as="geometry" />
        </mxCell>
        <mxCell id="9e8LTtCVws6JlIJ1aQSF-31" value="boolean" style="shape=partialRectangle;connectable=0;fillColor=none;top=0;left=0;bottom=0;right=0;align=center;spacingLeft=2;overflow=hidden;fontSize=18;" vertex="1" parent="9e8LTtCVws6JlIJ1aQSF-30">
          <mxGeometry width="94.21435546875" height="45" as="geometry">
            <mxRectangle width="94.21435546875" height="45" as="alternateBounds" />
          </mxGeometry>
        </mxCell>
        <mxCell id="9e8LTtCVws6JlIJ1aQSF-32" value="admin" style="shape=partialRectangle;connectable=0;fillColor=none;top=0;left=0;bottom=0;right=0;align=center;spacingLeft=2;overflow=hidden;fontSize=18;" vertex="1" parent="9e8LTtCVws6JlIJ1aQSF-30">
          <mxGeometry x="94.21435546875" width="168.9998779296875" height="45" as="geometry">
            <mxRectangle width="168.9998779296875" height="45" as="alternateBounds" />
          </mxGeometry>
        </mxCell>
        <mxCell id="9e8LTtCVws6JlIJ1aQSF-33" value="" style="shape=partialRectangle;connectable=0;fillColor=none;top=0;left=0;bottom=0;right=0;align=center;spacingLeft=2;overflow=hidden;fontSize=18;" vertex="1" parent="9e8LTtCVws6JlIJ1aQSF-30">
          <mxGeometry x="263.2142333984375" width="63.7857666015625" height="45" as="geometry">
            <mxRectangle width="63.7857666015625" height="45" as="alternateBounds" />
          </mxGeometry>
        </mxCell>
        <mxCell id="9e8LTtCVws6JlIJ1aQSF-34" style="shape=tableRow;horizontal=0;startSize=0;swimlaneHead=0;swimlaneBody=0;fillColor=none;collapsible=0;dropTarget=0;points=[[0,0.5],[1,0.5]];portConstraint=eastwest;top=0;left=0;right=0;bottom=0;align=center;fontSize=18;" vertex="1" parent="9e8LTtCVws6JlIJ1aQSF-1">
          <mxGeometry y="385" width="327" height="45" as="geometry" />
        </mxCell>
        <mxCell id="9e8LTtCVws6JlIJ1aQSF-35" value="boolean" style="shape=partialRectangle;connectable=0;fillColor=none;top=0;left=0;bottom=0;right=0;align=center;spacingLeft=2;overflow=hidden;fontSize=18;" vertex="1" parent="9e8LTtCVws6JlIJ1aQSF-34">
          <mxGeometry width="94.21435546875" height="45" as="geometry">
            <mxRectangle width="94.21435546875" height="45" as="alternateBounds" />
          </mxGeometry>
        </mxCell>
        <mxCell id="9e8LTtCVws6JlIJ1aQSF-36" value="isInDanger" style="shape=partialRectangle;connectable=0;fillColor=none;top=0;left=0;bottom=0;right=0;align=center;spacingLeft=2;overflow=hidden;fontSize=18;" vertex="1" parent="9e8LTtCVws6JlIJ1aQSF-34">
          <mxGeometry x="94.21435546875" width="168.9998779296875" height="45" as="geometry">
            <mxRectangle width="168.9998779296875" height="45" as="alternateBounds" />
          </mxGeometry>
        </mxCell>
        <mxCell id="9e8LTtCVws6JlIJ1aQSF-37" value="" style="shape=partialRectangle;connectable=0;fillColor=none;top=0;left=0;bottom=0;right=0;align=center;spacingLeft=2;overflow=hidden;fontSize=18;" vertex="1" parent="9e8LTtCVws6JlIJ1aQSF-34">
          <mxGeometry x="263.2142333984375" width="63.7857666015625" height="45" as="geometry">
            <mxRectangle width="63.7857666015625" height="45" as="alternateBounds" />
          </mxGeometry>
        </mxCell>
        <mxCell id="9e8LTtCVws6JlIJ1aQSF-38" style="shape=tableRow;horizontal=0;startSize=0;swimlaneHead=0;swimlaneBody=0;fillColor=none;collapsible=0;dropTarget=0;points=[[0,0.5],[1,0.5]];portConstraint=eastwest;top=0;left=0;right=0;bottom=0;align=center;fontSize=18;" vertex="1" parent="9e8LTtCVws6JlIJ1aQSF-1">
          <mxGeometry y="430" width="327" height="45" as="geometry" />
        </mxCell>
        <mxCell id="9e8LTtCVws6JlIJ1aQSF-39" value="datetime" style="shape=partialRectangle;connectable=0;fillColor=none;top=0;left=0;bottom=0;right=0;align=center;spacingLeft=2;overflow=hidden;fontSize=18;" vertex="1" parent="9e8LTtCVws6JlIJ1aQSF-38">
          <mxGeometry width="94.21435546875" height="45" as="geometry">
            <mxRectangle width="94.21435546875" height="45" as="alternateBounds" />
          </mxGeometry>
        </mxCell>
        <mxCell id="9e8LTtCVws6JlIJ1aQSF-40" value="createdAt" style="shape=partialRectangle;connectable=0;fillColor=none;top=0;left=0;bottom=0;right=0;align=center;spacingLeft=2;overflow=hidden;fontSize=18;" vertex="1" parent="9e8LTtCVws6JlIJ1aQSF-38">
          <mxGeometry x="94.21435546875" width="168.9998779296875" height="45" as="geometry">
            <mxRectangle width="168.9998779296875" height="45" as="alternateBounds" />
          </mxGeometry>
        </mxCell>
        <mxCell id="9e8LTtCVws6JlIJ1aQSF-41" value="" style="shape=partialRectangle;connectable=0;fillColor=none;top=0;left=0;bottom=0;right=0;align=center;spacingLeft=2;overflow=hidden;fontSize=18;" vertex="1" parent="9e8LTtCVws6JlIJ1aQSF-38">
          <mxGeometry x="263.2142333984375" width="63.7857666015625" height="45" as="geometry">
            <mxRectangle width="63.7857666015625" height="45" as="alternateBounds" />
          </mxGeometry>
        </mxCell>
        <mxCell id="9e8LTtCVws6JlIJ1aQSF-42" value="EMERGENCY_CONTACTS" style="shape=table;startSize=25;container=1;collapsible=0;childLayout=tableLayout;fixedRows=1;rowLines=1;fontStyle=1;align=center;resizeLast=1;fontSize=18;fillColor=#ffcccc;strokeColor=#36393d;" vertex="1" parent="1">
          <mxGeometry x="-347" y="778" width="279" height="257" as="geometry" />
        </mxCell>
        <mxCell id="9e8LTtCVws6JlIJ1aQSF-43" style="shape=tableRow;horizontal=0;startSize=0;swimlaneHead=0;swimlaneBody=0;fillColor=none;collapsible=0;dropTarget=0;points=[[0,0.5],[1,0.5]];portConstraint=eastwest;top=0;left=0;right=0;bottom=0;align=center;fontSize=18;" vertex="1" parent="9e8LTtCVws6JlIJ1aQSF-42">
          <mxGeometry y="25" width="279" height="46" as="geometry" />
        </mxCell>
        <mxCell id="9e8LTtCVws6JlIJ1aQSF-44" value="string" style="shape=partialRectangle;connectable=0;fillColor=none;top=0;left=0;bottom=0;right=0;align=center;spacingLeft=2;overflow=hidden;fontSize=18;" vertex="1" parent="9e8LTtCVws6JlIJ1aQSF-43">
          <mxGeometry width="84.0714111328125" height="46" as="geometry">
            <mxRectangle width="84.0714111328125" height="46" as="alternateBounds" />
          </mxGeometry>
        </mxCell>
        <mxCell id="9e8LTtCVws6JlIJ1aQSF-45" value="id" style="shape=partialRectangle;connectable=0;fillColor=none;top=0;left=0;bottom=0;right=0;align=center;spacingLeft=2;overflow=hidden;fontSize=18;" vertex="1" parent="9e8LTtCVws6JlIJ1aQSF-43">
          <mxGeometry x="84.0714111328125" width="126.9285888671875" height="46" as="geometry">
            <mxRectangle width="126.9285888671875" height="46" as="alternateBounds" />
          </mxGeometry>
        </mxCell>
        <mxCell id="9e8LTtCVws6JlIJ1aQSF-46" value="PK" style="shape=partialRectangle;connectable=0;fillColor=none;top=0;left=0;bottom=0;right=0;align=center;spacingLeft=2;overflow=hidden;fontSize=18;" vertex="1" parent="9e8LTtCVws6JlIJ1aQSF-43">
          <mxGeometry x="211" width="68" height="46" as="geometry">
            <mxRectangle width="68" height="46" as="alternateBounds" />
          </mxGeometry>
        </mxCell>
        <mxCell id="9e8LTtCVws6JlIJ1aQSF-47" style="shape=tableRow;horizontal=0;startSize=0;swimlaneHead=0;swimlaneBody=0;fillColor=none;collapsible=0;dropTarget=0;points=[[0,0.5],[1,0.5]];portConstraint=eastwest;top=0;left=0;right=0;bottom=0;align=center;fontSize=18;" vertex="1" parent="9e8LTtCVws6JlIJ1aQSF-42">
          <mxGeometry y="71" width="279" height="46" as="geometry" />
        </mxCell>
        <mxCell id="9e8LTtCVws6JlIJ1aQSF-48" value="string" style="shape=partialRectangle;connectable=0;fillColor=none;top=0;left=0;bottom=0;right=0;align=center;spacingLeft=2;overflow=hidden;fontSize=18;" vertex="1" parent="9e8LTtCVws6JlIJ1aQSF-47">
          <mxGeometry width="84.0714111328125" height="46" as="geometry">
            <mxRectangle width="84.0714111328125" height="46" as="alternateBounds" />
          </mxGeometry>
        </mxCell>
        <mxCell id="9e8LTtCVws6JlIJ1aQSF-49" value="userId" style="shape=partialRectangle;connectable=0;fillColor=none;top=0;left=0;bottom=0;right=0;align=center;spacingLeft=2;overflow=hidden;fontSize=18;" vertex="1" parent="9e8LTtCVws6JlIJ1aQSF-47">
          <mxGeometry x="84.0714111328125" width="126.9285888671875" height="46" as="geometry">
            <mxRectangle width="126.9285888671875" height="46" as="alternateBounds" />
          </mxGeometry>
        </mxCell>
        <mxCell id="9e8LTtCVws6JlIJ1aQSF-50" value="FK" style="shape=partialRectangle;connectable=0;fillColor=none;top=0;left=0;bottom=0;right=0;align=center;spacingLeft=2;overflow=hidden;fontSize=18;" vertex="1" parent="9e8LTtCVws6JlIJ1aQSF-47">
          <mxGeometry x="211" width="68" height="46" as="geometry">
            <mxRectangle width="68" height="46" as="alternateBounds" />
          </mxGeometry>
        </mxCell>
        <mxCell id="9e8LTtCVws6JlIJ1aQSF-51" style="shape=tableRow;horizontal=0;startSize=0;swimlaneHead=0;swimlaneBody=0;fillColor=none;collapsible=0;dropTarget=0;points=[[0,0.5],[1,0.5]];portConstraint=eastwest;top=0;left=0;right=0;bottom=0;align=center;fontSize=18;" vertex="1" parent="9e8LTtCVws6JlIJ1aQSF-42">
          <mxGeometry y="117" width="279" height="46" as="geometry" />
        </mxCell>
        <mxCell id="9e8LTtCVws6JlIJ1aQSF-52" value="string" style="shape=partialRectangle;connectable=0;fillColor=none;top=0;left=0;bottom=0;right=0;align=center;spacingLeft=2;overflow=hidden;fontSize=18;" vertex="1" parent="9e8LTtCVws6JlIJ1aQSF-51">
          <mxGeometry width="84.0714111328125" height="46" as="geometry">
            <mxRectangle width="84.0714111328125" height="46" as="alternateBounds" />
          </mxGeometry>
        </mxCell>
        <mxCell id="9e8LTtCVws6JlIJ1aQSF-53" value="name" style="shape=partialRectangle;connectable=0;fillColor=none;top=0;left=0;bottom=0;right=0;align=center;spacingLeft=2;overflow=hidden;fontSize=18;" vertex="1" parent="9e8LTtCVws6JlIJ1aQSF-51">
          <mxGeometry x="84.0714111328125" width="126.9285888671875" height="46" as="geometry">
            <mxRectangle width="126.9285888671875" height="46" as="alternateBounds" />
          </mxGeometry>
        </mxCell>
        <mxCell id="9e8LTtCVws6JlIJ1aQSF-54" value="" style="shape=partialRectangle;connectable=0;fillColor=none;top=0;left=0;bottom=0;right=0;align=center;spacingLeft=2;overflow=hidden;fontSize=18;" vertex="1" parent="9e8LTtCVws6JlIJ1aQSF-51">
          <mxGeometry x="211" width="68" height="46" as="geometry">
            <mxRectangle width="68" height="46" as="alternateBounds" />
          </mxGeometry>
        </mxCell>
        <mxCell id="9e8LTtCVws6JlIJ1aQSF-55" style="shape=tableRow;horizontal=0;startSize=0;swimlaneHead=0;swimlaneBody=0;fillColor=none;collapsible=0;dropTarget=0;points=[[0,0.5],[1,0.5]];portConstraint=eastwest;top=0;left=0;right=0;bottom=0;align=center;fontSize=18;" vertex="1" parent="9e8LTtCVws6JlIJ1aQSF-42">
          <mxGeometry y="163" width="279" height="46" as="geometry" />
        </mxCell>
        <mxCell id="9e8LTtCVws6JlIJ1aQSF-56" value="string" style="shape=partialRectangle;connectable=0;fillColor=none;top=0;left=0;bottom=0;right=0;align=center;spacingLeft=2;overflow=hidden;fontSize=18;" vertex="1" parent="9e8LTtCVws6JlIJ1aQSF-55">
          <mxGeometry width="84.0714111328125" height="46" as="geometry">
            <mxRectangle width="84.0714111328125" height="46" as="alternateBounds" />
          </mxGeometry>
        </mxCell>
        <mxCell id="9e8LTtCVws6JlIJ1aQSF-57" value="phoneNumber" style="shape=partialRectangle;connectable=0;fillColor=none;top=0;left=0;bottom=0;right=0;align=center;spacingLeft=2;overflow=hidden;fontSize=18;" vertex="1" parent="9e8LTtCVws6JlIJ1aQSF-55">
          <mxGeometry x="84.0714111328125" width="126.9285888671875" height="46" as="geometry">
            <mxRectangle width="126.9285888671875" height="46" as="alternateBounds" />
          </mxGeometry>
        </mxCell>
        <mxCell id="9e8LTtCVws6JlIJ1aQSF-58" value="" style="shape=partialRectangle;connectable=0;fillColor=none;top=0;left=0;bottom=0;right=0;align=center;spacingLeft=2;overflow=hidden;fontSize=18;" vertex="1" parent="9e8LTtCVws6JlIJ1aQSF-55">
          <mxGeometry x="211" width="68" height="46" as="geometry">
            <mxRectangle width="68" height="46" as="alternateBounds" />
          </mxGeometry>
        </mxCell>
        <mxCell id="9e8LTtCVws6JlIJ1aQSF-59" style="shape=tableRow;horizontal=0;startSize=0;swimlaneHead=0;swimlaneBody=0;fillColor=none;collapsible=0;dropTarget=0;points=[[0,0.5],[1,0.5]];portConstraint=eastwest;top=0;left=0;right=0;bottom=0;align=center;fontSize=18;" vertex="1" parent="9e8LTtCVws6JlIJ1aQSF-42">
          <mxGeometry y="209" width="279" height="46" as="geometry" />
        </mxCell>
        <mxCell id="9e8LTtCVws6JlIJ1aQSF-60" value="string" style="shape=partialRectangle;connectable=0;fillColor=none;top=0;left=0;bottom=0;right=0;align=center;spacingLeft=2;overflow=hidden;fontSize=18;" vertex="1" parent="9e8LTtCVws6JlIJ1aQSF-59">
          <mxGeometry width="84.0714111328125" height="46" as="geometry">
            <mxRectangle width="84.0714111328125" height="46" as="alternateBounds" />
          </mxGeometry>
        </mxCell>
        <mxCell id="9e8LTtCVws6JlIJ1aQSF-61" value="relationship" style="shape=partialRectangle;connectable=0;fillColor=none;top=0;left=0;bottom=0;right=0;align=center;spacingLeft=2;overflow=hidden;fontSize=18;" vertex="1" parent="9e8LTtCVws6JlIJ1aQSF-59">
          <mxGeometry x="84.0714111328125" width="126.9285888671875" height="46" as="geometry">
            <mxRectangle width="126.9285888671875" height="46" as="alternateBounds" />
          </mxGeometry>
        </mxCell>
        <mxCell id="9e8LTtCVws6JlIJ1aQSF-62" value="" style="shape=partialRectangle;connectable=0;fillColor=none;top=0;left=0;bottom=0;right=0;align=center;spacingLeft=2;overflow=hidden;fontSize=18;" vertex="1" parent="9e8LTtCVws6JlIJ1aQSF-59">
          <mxGeometry x="211" width="68" height="46" as="geometry">
            <mxRectangle width="68" height="46" as="alternateBounds" />
          </mxGeometry>
        </mxCell>
        <mxCell id="9e8LTtCVws6JlIJ1aQSF-63" value="POSTS" style="shape=table;startSize=25;container=1;collapsible=0;childLayout=tableLayout;fixedRows=1;rowLines=1;fontStyle=1;align=center;resizeLast=1;fontSize=18;fillColor=#eeeeee;strokeColor=#36393d;" vertex="1" parent="1">
          <mxGeometry x="58" y="706" width="312" height="385" as="geometry" />
        </mxCell>
        <mxCell id="9e8LTtCVws6JlIJ1aQSF-64" style="shape=tableRow;horizontal=0;startSize=0;swimlaneHead=0;swimlaneBody=0;fillColor=none;collapsible=0;dropTarget=0;points=[[0,0.5],[1,0.5]];portConstraint=eastwest;top=0;left=0;right=0;bottom=0;align=center;fontSize=18;" vertex="1" parent="9e8LTtCVws6JlIJ1aQSF-63">
          <mxGeometry y="25" width="312" height="45" as="geometry" />
        </mxCell>
        <mxCell id="9e8LTtCVws6JlIJ1aQSF-65" value="string" style="shape=partialRectangle;connectable=0;fillColor=none;top=0;left=0;bottom=0;right=0;align=center;spacingLeft=2;overflow=hidden;fontSize=18;" vertex="1" parent="9e8LTtCVws6JlIJ1aQSF-64">
          <mxGeometry width="89.0714111328125" height="45" as="geometry">
            <mxRectangle width="89.0714111328125" height="45" as="alternateBounds" />
          </mxGeometry>
        </mxCell>
        <mxCell id="9e8LTtCVws6JlIJ1aQSF-66" value="id" style="shape=partialRectangle;connectable=0;fillColor=none;top=0;left=0;bottom=0;right=0;align=center;spacingLeft=2;overflow=hidden;fontSize=18;" vertex="1" parent="9e8LTtCVws6JlIJ1aQSF-64">
          <mxGeometry x="89.0714111328125" width="161.285888671875" height="45" as="geometry">
            <mxRectangle width="161.285888671875" height="45" as="alternateBounds" />
          </mxGeometry>
        </mxCell>
        <mxCell id="9e8LTtCVws6JlIJ1aQSF-67" value="PK" style="shape=partialRectangle;connectable=0;fillColor=none;top=0;left=0;bottom=0;right=0;align=center;spacingLeft=2;overflow=hidden;fontSize=18;" vertex="1" parent="9e8LTtCVws6JlIJ1aQSF-64">
          <mxGeometry x="250.3572998046875" width="61.6427001953125" height="45" as="geometry">
            <mxRectangle width="61.6427001953125" height="45" as="alternateBounds" />
          </mxGeometry>
        </mxCell>
        <mxCell id="9e8LTtCVws6JlIJ1aQSF-68" style="shape=tableRow;horizontal=0;startSize=0;swimlaneHead=0;swimlaneBody=0;fillColor=none;collapsible=0;dropTarget=0;points=[[0,0.5],[1,0.5]];portConstraint=eastwest;top=0;left=0;right=0;bottom=0;align=center;fontSize=18;" vertex="1" parent="9e8LTtCVws6JlIJ1aQSF-63">
          <mxGeometry y="70" width="312" height="45" as="geometry" />
        </mxCell>
        <mxCell id="9e8LTtCVws6JlIJ1aQSF-69" value="string" style="shape=partialRectangle;connectable=0;fillColor=none;top=0;left=0;bottom=0;right=0;align=center;spacingLeft=2;overflow=hidden;fontSize=18;" vertex="1" parent="9e8LTtCVws6JlIJ1aQSF-68">
          <mxGeometry width="89.0714111328125" height="45" as="geometry">
            <mxRectangle width="89.0714111328125" height="45" as="alternateBounds" />
          </mxGeometry>
        </mxCell>
        <mxCell id="9e8LTtCVws6JlIJ1aQSF-70" value="userId" style="shape=partialRectangle;connectable=0;fillColor=none;top=0;left=0;bottom=0;right=0;align=center;spacingLeft=2;overflow=hidden;fontSize=18;" vertex="1" parent="9e8LTtCVws6JlIJ1aQSF-68">
          <mxGeometry x="89.0714111328125" width="161.285888671875" height="45" as="geometry">
            <mxRectangle width="161.285888671875" height="45" as="alternateBounds" />
          </mxGeometry>
        </mxCell>
        <mxCell id="9e8LTtCVws6JlIJ1aQSF-71" value="FK" style="shape=partialRectangle;connectable=0;fillColor=none;top=0;left=0;bottom=0;right=0;align=center;spacingLeft=2;overflow=hidden;fontSize=18;" vertex="1" parent="9e8LTtCVws6JlIJ1aQSF-68">
          <mxGeometry x="250.3572998046875" width="61.6427001953125" height="45" as="geometry">
            <mxRectangle width="61.6427001953125" height="45" as="alternateBounds" />
          </mxGeometry>
        </mxCell>
        <mxCell id="9e8LTtCVws6JlIJ1aQSF-72" style="shape=tableRow;horizontal=0;startSize=0;swimlaneHead=0;swimlaneBody=0;fillColor=none;collapsible=0;dropTarget=0;points=[[0,0.5],[1,0.5]];portConstraint=eastwest;top=0;left=0;right=0;bottom=0;align=center;fontSize=18;" vertex="1" parent="9e8LTtCVws6JlIJ1aQSF-63">
          <mxGeometry y="115" width="312" height="45" as="geometry" />
        </mxCell>
        <mxCell id="9e8LTtCVws6JlIJ1aQSF-73" value="string" style="shape=partialRectangle;connectable=0;fillColor=none;top=0;left=0;bottom=0;right=0;align=center;spacingLeft=2;overflow=hidden;fontSize=18;" vertex="1" parent="9e8LTtCVws6JlIJ1aQSF-72">
          <mxGeometry width="89.0714111328125" height="45" as="geometry">
            <mxRectangle width="89.0714111328125" height="45" as="alternateBounds" />
          </mxGeometry>
        </mxCell>
        <mxCell id="9e8LTtCVws6JlIJ1aQSF-74" value="userName" style="shape=partialRectangle;connectable=0;fillColor=none;top=0;left=0;bottom=0;right=0;align=center;spacingLeft=2;overflow=hidden;fontSize=18;" vertex="1" parent="9e8LTtCVws6JlIJ1aQSF-72">
          <mxGeometry x="89.0714111328125" width="161.285888671875" height="45" as="geometry">
            <mxRectangle width="161.285888671875" height="45" as="alternateBounds" />
          </mxGeometry>
        </mxCell>
        <mxCell id="9e8LTtCVws6JlIJ1aQSF-75" value="" style="shape=partialRectangle;connectable=0;fillColor=none;top=0;left=0;bottom=0;right=0;align=center;spacingLeft=2;overflow=hidden;fontSize=18;" vertex="1" parent="9e8LTtCVws6JlIJ1aQSF-72">
          <mxGeometry x="250.3572998046875" width="61.6427001953125" height="45" as="geometry">
            <mxRectangle width="61.6427001953125" height="45" as="alternateBounds" />
          </mxGeometry>
        </mxCell>
        <mxCell id="9e8LTtCVws6JlIJ1aQSF-76" style="shape=tableRow;horizontal=0;startSize=0;swimlaneHead=0;swimlaneBody=0;fillColor=none;collapsible=0;dropTarget=0;points=[[0,0.5],[1,0.5]];portConstraint=eastwest;top=0;left=0;right=0;bottom=0;align=center;fontSize=18;" vertex="1" parent="9e8LTtCVws6JlIJ1aQSF-63">
          <mxGeometry y="160" width="312" height="45" as="geometry" />
        </mxCell>
        <mxCell id="9e8LTtCVws6JlIJ1aQSF-77" value="string" style="shape=partialRectangle;connectable=0;fillColor=none;top=0;left=0;bottom=0;right=0;align=center;spacingLeft=2;overflow=hidden;fontSize=18;" vertex="1" parent="9e8LTtCVws6JlIJ1aQSF-76">
          <mxGeometry width="89.0714111328125" height="45" as="geometry">
            <mxRectangle width="89.0714111328125" height="45" as="alternateBounds" />
          </mxGeometry>
        </mxCell>
        <mxCell id="9e8LTtCVws6JlIJ1aQSF-78" value="userProfileImage" style="shape=partialRectangle;connectable=0;fillColor=none;top=0;left=0;bottom=0;right=0;align=center;spacingLeft=2;overflow=hidden;fontSize=18;" vertex="1" parent="9e8LTtCVws6JlIJ1aQSF-76">
          <mxGeometry x="89.0714111328125" width="161.285888671875" height="45" as="geometry">
            <mxRectangle width="161.285888671875" height="45" as="alternateBounds" />
          </mxGeometry>
        </mxCell>
        <mxCell id="9e8LTtCVws6JlIJ1aQSF-79" value="" style="shape=partialRectangle;connectable=0;fillColor=none;top=0;left=0;bottom=0;right=0;align=center;spacingLeft=2;overflow=hidden;fontSize=18;" vertex="1" parent="9e8LTtCVws6JlIJ1aQSF-76">
          <mxGeometry x="250.3572998046875" width="61.6427001953125" height="45" as="geometry">
            <mxRectangle width="61.6427001953125" height="45" as="alternateBounds" />
          </mxGeometry>
        </mxCell>
        <mxCell id="9e8LTtCVws6JlIJ1aQSF-80" style="shape=tableRow;horizontal=0;startSize=0;swimlaneHead=0;swimlaneBody=0;fillColor=none;collapsible=0;dropTarget=0;points=[[0,0.5],[1,0.5]];portConstraint=eastwest;top=0;left=0;right=0;bottom=0;align=center;fontSize=18;" vertex="1" parent="9e8LTtCVws6JlIJ1aQSF-63">
          <mxGeometry y="205" width="312" height="45" as="geometry" />
        </mxCell>
        <mxCell id="9e8LTtCVws6JlIJ1aQSF-81" value="string" style="shape=partialRectangle;connectable=0;fillColor=none;top=0;left=0;bottom=0;right=0;align=center;spacingLeft=2;overflow=hidden;fontSize=18;" vertex="1" parent="9e8LTtCVws6JlIJ1aQSF-80">
          <mxGeometry width="89.0714111328125" height="45" as="geometry">
            <mxRectangle width="89.0714111328125" height="45" as="alternateBounds" />
          </mxGeometry>
        </mxCell>
        <mxCell id="9e8LTtCVws6JlIJ1aQSF-82" value="content" style="shape=partialRectangle;connectable=0;fillColor=none;top=0;left=0;bottom=0;right=0;align=center;spacingLeft=2;overflow=hidden;fontSize=18;" vertex="1" parent="9e8LTtCVws6JlIJ1aQSF-80">
          <mxGeometry x="89.0714111328125" width="161.285888671875" height="45" as="geometry">
            <mxRectangle width="161.285888671875" height="45" as="alternateBounds" />
          </mxGeometry>
        </mxCell>
        <mxCell id="9e8LTtCVws6JlIJ1aQSF-83" value="" style="shape=partialRectangle;connectable=0;fillColor=none;top=0;left=0;bottom=0;right=0;align=center;spacingLeft=2;overflow=hidden;fontSize=18;" vertex="1" parent="9e8LTtCVws6JlIJ1aQSF-80">
          <mxGeometry x="250.3572998046875" width="61.6427001953125" height="45" as="geometry">
            <mxRectangle width="61.6427001953125" height="45" as="alternateBounds" />
          </mxGeometry>
        </mxCell>
        <mxCell id="9e8LTtCVws6JlIJ1aQSF-84" style="shape=tableRow;horizontal=0;startSize=0;swimlaneHead=0;swimlaneBody=0;fillColor=none;collapsible=0;dropTarget=0;points=[[0,0.5],[1,0.5]];portConstraint=eastwest;top=0;left=0;right=0;bottom=0;align=center;fontSize=18;" vertex="1" parent="9e8LTtCVws6JlIJ1aQSF-63">
          <mxGeometry y="250" width="312" height="45" as="geometry" />
        </mxCell>
        <mxCell id="9e8LTtCVws6JlIJ1aQSF-85" value="boolean" style="shape=partialRectangle;connectable=0;fillColor=none;top=0;left=0;bottom=0;right=0;align=center;spacingLeft=2;overflow=hidden;fontSize=18;" vertex="1" parent="9e8LTtCVws6JlIJ1aQSF-84">
          <mxGeometry width="89.0714111328125" height="45" as="geometry">
            <mxRectangle width="89.0714111328125" height="45" as="alternateBounds" />
          </mxGeometry>
        </mxCell>
        <mxCell id="9e8LTtCVws6JlIJ1aQSF-86" value="temp" style="shape=partialRectangle;connectable=0;fillColor=none;top=0;left=0;bottom=0;right=0;align=center;spacingLeft=2;overflow=hidden;fontSize=18;" vertex="1" parent="9e8LTtCVws6JlIJ1aQSF-84">
          <mxGeometry x="89.0714111328125" width="161.285888671875" height="45" as="geometry">
            <mxRectangle width="161.285888671875" height="45" as="alternateBounds" />
          </mxGeometry>
        </mxCell>
        <mxCell id="9e8LTtCVws6JlIJ1aQSF-87" value="" style="shape=partialRectangle;connectable=0;fillColor=none;top=0;left=0;bottom=0;right=0;align=center;spacingLeft=2;overflow=hidden;fontSize=18;" vertex="1" parent="9e8LTtCVws6JlIJ1aQSF-84">
          <mxGeometry x="250.3572998046875" width="61.6427001953125" height="45" as="geometry">
            <mxRectangle width="61.6427001953125" height="45" as="alternateBounds" />
          </mxGeometry>
        </mxCell>
        <mxCell id="9e8LTtCVws6JlIJ1aQSF-88" style="shape=tableRow;horizontal=0;startSize=0;swimlaneHead=0;swimlaneBody=0;fillColor=none;collapsible=0;dropTarget=0;points=[[0,0.5],[1,0.5]];portConstraint=eastwest;top=0;left=0;right=0;bottom=0;align=center;fontSize=18;" vertex="1" parent="9e8LTtCVws6JlIJ1aQSF-63">
          <mxGeometry y="295" width="312" height="45" as="geometry" />
        </mxCell>
        <mxCell id="9e8LTtCVws6JlIJ1aQSF-89" value="datetime" style="shape=partialRectangle;connectable=0;fillColor=none;top=0;left=0;bottom=0;right=0;align=center;spacingLeft=2;overflow=hidden;fontSize=18;" vertex="1" parent="9e8LTtCVws6JlIJ1aQSF-88">
          <mxGeometry width="89.0714111328125" height="45" as="geometry">
            <mxRectangle width="89.0714111328125" height="45" as="alternateBounds" />
          </mxGeometry>
        </mxCell>
        <mxCell id="9e8LTtCVws6JlIJ1aQSF-90" value="createdAt" style="shape=partialRectangle;connectable=0;fillColor=none;top=0;left=0;bottom=0;right=0;align=center;spacingLeft=2;overflow=hidden;fontSize=18;" vertex="1" parent="9e8LTtCVws6JlIJ1aQSF-88">
          <mxGeometry x="89.0714111328125" width="161.285888671875" height="45" as="geometry">
            <mxRectangle width="161.285888671875" height="45" as="alternateBounds" />
          </mxGeometry>
        </mxCell>
        <mxCell id="9e8LTtCVws6JlIJ1aQSF-91" value="" style="shape=partialRectangle;connectable=0;fillColor=none;top=0;left=0;bottom=0;right=0;align=center;spacingLeft=2;overflow=hidden;fontSize=18;" vertex="1" parent="9e8LTtCVws6JlIJ1aQSF-88">
          <mxGeometry x="250.3572998046875" width="61.6427001953125" height="45" as="geometry">
            <mxRectangle width="61.6427001953125" height="45" as="alternateBounds" />
          </mxGeometry>
        </mxCell>
        <mxCell id="9e8LTtCVws6JlIJ1aQSF-92" style="shape=tableRow;horizontal=0;startSize=0;swimlaneHead=0;swimlaneBody=0;fillColor=none;collapsible=0;dropTarget=0;points=[[0,0.5],[1,0.5]];portConstraint=eastwest;top=0;left=0;right=0;bottom=0;align=center;fontSize=18;" vertex="1" parent="9e8LTtCVws6JlIJ1aQSF-63">
          <mxGeometry y="340" width="312" height="45" as="geometry" />
        </mxCell>
        <mxCell id="9e8LTtCVws6JlIJ1aQSF-93" value="int" style="shape=partialRectangle;connectable=0;fillColor=none;top=0;left=0;bottom=0;right=0;align=center;spacingLeft=2;overflow=hidden;fontSize=18;" vertex="1" parent="9e8LTtCVws6JlIJ1aQSF-92">
          <mxGeometry width="89.0714111328125" height="45" as="geometry">
            <mxRectangle width="89.0714111328125" height="45" as="alternateBounds" />
          </mxGeometry>
        </mxCell>
        <mxCell id="9e8LTtCVws6JlIJ1aQSF-94" value="commentCount" style="shape=partialRectangle;connectable=0;fillColor=none;top=0;left=0;bottom=0;right=0;align=center;spacingLeft=2;overflow=hidden;fontSize=18;" vertex="1" parent="9e8LTtCVws6JlIJ1aQSF-92">
          <mxGeometry x="89.0714111328125" width="161.285888671875" height="45" as="geometry">
            <mxRectangle width="161.285888671875" height="45" as="alternateBounds" />
          </mxGeometry>
        </mxCell>
        <mxCell id="9e8LTtCVws6JlIJ1aQSF-95" value="" style="shape=partialRectangle;connectable=0;fillColor=none;top=0;left=0;bottom=0;right=0;align=center;spacingLeft=2;overflow=hidden;fontSize=18;" vertex="1" parent="9e8LTtCVws6JlIJ1aQSF-92">
          <mxGeometry x="250.3572998046875" width="61.6427001953125" height="45" as="geometry">
            <mxRectangle width="61.6427001953125" height="45" as="alternateBounds" />
          </mxGeometry>
        </mxCell>
        <mxCell id="9e8LTtCVws6JlIJ1aQSF-96" value="COMMENTS" style="shape=table;startSize=25;container=1;collapsible=0;childLayout=tableLayout;fixedRows=1;rowLines=1;fontStyle=1;align=center;resizeLast=1;fontSize=18;fillColor=#fff2cc;strokeColor=#d6b656;" vertex="1" parent="1">
          <mxGeometry x="-5" y="1337" width="351" height="418.357177734375" as="geometry" />
        </mxCell>
        <mxCell id="9e8LTtCVws6JlIJ1aQSF-97" style="shape=tableRow;horizontal=0;startSize=0;swimlaneHead=0;swimlaneBody=0;fillColor=none;collapsible=0;dropTarget=0;points=[[0,0.5],[1,0.5]];portConstraint=eastwest;top=0;left=0;right=0;bottom=0;align=center;fontSize=18;" vertex="1" parent="9e8LTtCVws6JlIJ1aQSF-96">
          <mxGeometry y="25" width="351" height="45" as="geometry" />
        </mxCell>
        <mxCell id="9e8LTtCVws6JlIJ1aQSF-98" value="string" style="shape=partialRectangle;connectable=0;fillColor=none;top=0;left=0;bottom=0;right=0;align=center;spacingLeft=2;overflow=hidden;fontSize=18;" vertex="1" parent="9e8LTtCVws6JlIJ1aQSF-97">
          <mxGeometry width="83.5001220703125" height="45" as="geometry">
            <mxRectangle width="83.5001220703125" height="45" as="alternateBounds" />
          </mxGeometry>
        </mxCell>
        <mxCell id="9e8LTtCVws6JlIJ1aQSF-99" value="id" style="shape=partialRectangle;connectable=0;fillColor=none;top=0;left=0;bottom=0;right=0;align=center;spacingLeft=2;overflow=hidden;fontSize=18;" vertex="1" parent="9e8LTtCVws6JlIJ1aQSF-97">
          <mxGeometry x="83.5001220703125" width="182.4998779296875" height="45" as="geometry">
            <mxRectangle width="182.4998779296875" height="45" as="alternateBounds" />
          </mxGeometry>
        </mxCell>
        <mxCell id="9e8LTtCVws6JlIJ1aQSF-100" value="PK" style="shape=partialRectangle;connectable=0;fillColor=none;top=0;left=0;bottom=0;right=0;align=center;spacingLeft=2;overflow=hidden;fontSize=18;" vertex="1" parent="9e8LTtCVws6JlIJ1aQSF-97">
          <mxGeometry x="266" width="85" height="45" as="geometry">
            <mxRectangle width="85" height="45" as="alternateBounds" />
          </mxGeometry>
        </mxCell>
        <mxCell id="9e8LTtCVws6JlIJ1aQSF-101" style="shape=tableRow;horizontal=0;startSize=0;swimlaneHead=0;swimlaneBody=0;fillColor=none;collapsible=0;dropTarget=0;points=[[0,0.5],[1,0.5]];portConstraint=eastwest;top=0;left=0;right=0;bottom=0;align=center;fontSize=18;" vertex="1" parent="9e8LTtCVws6JlIJ1aQSF-96">
          <mxGeometry y="70" width="351" height="45" as="geometry" />
        </mxCell>
        <mxCell id="9e8LTtCVws6JlIJ1aQSF-102" value="string" style="shape=partialRectangle;connectable=0;fillColor=none;top=0;left=0;bottom=0;right=0;align=center;spacingLeft=2;overflow=hidden;fontSize=18;" vertex="1" parent="9e8LTtCVws6JlIJ1aQSF-101">
          <mxGeometry width="83.5001220703125" height="45" as="geometry">
            <mxRectangle width="83.5001220703125" height="45" as="alternateBounds" />
          </mxGeometry>
        </mxCell>
        <mxCell id="9e8LTtCVws6JlIJ1aQSF-103" value="postId" style="shape=partialRectangle;connectable=0;fillColor=none;top=0;left=0;bottom=0;right=0;align=center;spacingLeft=2;overflow=hidden;fontSize=18;" vertex="1" parent="9e8LTtCVws6JlIJ1aQSF-101">
          <mxGeometry x="83.5001220703125" width="182.4998779296875" height="45" as="geometry">
            <mxRectangle width="182.4998779296875" height="45" as="alternateBounds" />
          </mxGeometry>
        </mxCell>
        <mxCell id="9e8LTtCVws6JlIJ1aQSF-104" value="FK" style="shape=partialRectangle;connectable=0;fillColor=none;top=0;left=0;bottom=0;right=0;align=center;spacingLeft=2;overflow=hidden;fontSize=18;" vertex="1" parent="9e8LTtCVws6JlIJ1aQSF-101">
          <mxGeometry x="266" width="85" height="45" as="geometry">
            <mxRectangle width="85" height="45" as="alternateBounds" />
          </mxGeometry>
        </mxCell>
        <mxCell id="9e8LTtCVws6JlIJ1aQSF-105" style="shape=tableRow;horizontal=0;startSize=0;swimlaneHead=0;swimlaneBody=0;fillColor=none;collapsible=0;dropTarget=0;points=[[0,0.5],[1,0.5]];portConstraint=eastwest;top=0;left=0;right=0;bottom=0;align=center;fontSize=18;" vertex="1" parent="9e8LTtCVws6JlIJ1aQSF-96">
          <mxGeometry y="115" width="351" height="45" as="geometry" />
        </mxCell>
        <mxCell id="9e8LTtCVws6JlIJ1aQSF-106" value="string" style="shape=partialRectangle;connectable=0;fillColor=none;top=0;left=0;bottom=0;right=0;align=center;spacingLeft=2;overflow=hidden;fontSize=18;" vertex="1" parent="9e8LTtCVws6JlIJ1aQSF-105">
          <mxGeometry width="83.5001220703125" height="45" as="geometry">
            <mxRectangle width="83.5001220703125" height="45" as="alternateBounds" />
          </mxGeometry>
        </mxCell>
        <mxCell id="9e8LTtCVws6JlIJ1aQSF-107" value="userId" style="shape=partialRectangle;connectable=0;fillColor=none;top=0;left=0;bottom=0;right=0;align=center;spacingLeft=2;overflow=hidden;fontSize=18;" vertex="1" parent="9e8LTtCVws6JlIJ1aQSF-105">
          <mxGeometry x="83.5001220703125" width="182.4998779296875" height="45" as="geometry">
            <mxRectangle width="182.4998779296875" height="45" as="alternateBounds" />
          </mxGeometry>
        </mxCell>
        <mxCell id="9e8LTtCVws6JlIJ1aQSF-108" value="FK" style="shape=partialRectangle;connectable=0;fillColor=none;top=0;left=0;bottom=0;right=0;align=center;spacingLeft=2;overflow=hidden;fontSize=18;" vertex="1" parent="9e8LTtCVws6JlIJ1aQSF-105">
          <mxGeometry x="266" width="85" height="45" as="geometry">
            <mxRectangle width="85" height="45" as="alternateBounds" />
          </mxGeometry>
        </mxCell>
        <mxCell id="9e8LTtCVws6JlIJ1aQSF-109" style="shape=tableRow;horizontal=0;startSize=0;swimlaneHead=0;swimlaneBody=0;fillColor=none;collapsible=0;dropTarget=0;points=[[0,0.5],[1,0.5]];portConstraint=eastwest;top=0;left=0;right=0;bottom=0;align=center;fontSize=18;" vertex="1" parent="9e8LTtCVws6JlIJ1aQSF-96">
          <mxGeometry y="160" width="351" height="33" as="geometry" />
        </mxCell>
        <mxCell id="9e8LTtCVws6JlIJ1aQSF-110" value="string" style="shape=partialRectangle;connectable=0;fillColor=none;top=0;left=0;bottom=0;right=0;align=center;spacingLeft=2;overflow=hidden;fontSize=18;" vertex="1" parent="9e8LTtCVws6JlIJ1aQSF-109">
          <mxGeometry width="83.5001220703125" height="33" as="geometry">
            <mxRectangle width="83.5001220703125" height="33" as="alternateBounds" />
          </mxGeometry>
        </mxCell>
        <mxCell id="9e8LTtCVws6JlIJ1aQSF-111" value="userName" style="shape=partialRectangle;connectable=0;fillColor=none;top=0;left=0;bottom=0;right=0;align=center;spacingLeft=2;overflow=hidden;fontSize=18;" vertex="1" parent="9e8LTtCVws6JlIJ1aQSF-109">
          <mxGeometry x="83.5001220703125" width="182.4998779296875" height="33" as="geometry">
            <mxRectangle width="182.4998779296875" height="33" as="alternateBounds" />
          </mxGeometry>
        </mxCell>
        <mxCell id="9e8LTtCVws6JlIJ1aQSF-112" value="" style="shape=partialRectangle;connectable=0;fillColor=none;top=0;left=0;bottom=0;right=0;align=center;spacingLeft=2;overflow=hidden;fontSize=18;" vertex="1" parent="9e8LTtCVws6JlIJ1aQSF-109">
          <mxGeometry x="266" width="85" height="33" as="geometry">
            <mxRectangle width="85" height="33" as="alternateBounds" />
          </mxGeometry>
        </mxCell>
        <mxCell id="9e8LTtCVws6JlIJ1aQSF-113" style="shape=tableRow;horizontal=0;startSize=0;swimlaneHead=0;swimlaneBody=0;fillColor=none;collapsible=0;dropTarget=0;points=[[0,0.5],[1,0.5]];portConstraint=eastwest;top=0;left=0;right=0;bottom=0;align=center;fontSize=18;" vertex="1" parent="9e8LTtCVws6JlIJ1aQSF-96">
          <mxGeometry y="193" width="351" height="45" as="geometry" />
        </mxCell>
        <mxCell id="9e8LTtCVws6JlIJ1aQSF-114" value="string" style="shape=partialRectangle;connectable=0;fillColor=none;top=0;left=0;bottom=0;right=0;align=center;spacingLeft=2;overflow=hidden;fontSize=18;" vertex="1" parent="9e8LTtCVws6JlIJ1aQSF-113">
          <mxGeometry width="83.5001220703125" height="45" as="geometry">
            <mxRectangle width="83.5001220703125" height="45" as="alternateBounds" />
          </mxGeometry>
        </mxCell>
        <mxCell id="9e8LTtCVws6JlIJ1aQSF-115" value="userProfileImage" style="shape=partialRectangle;connectable=0;fillColor=none;top=0;left=0;bottom=0;right=0;align=center;spacingLeft=2;overflow=hidden;fontSize=18;" vertex="1" parent="9e8LTtCVws6JlIJ1aQSF-113">
          <mxGeometry x="83.5001220703125" width="182.4998779296875" height="45" as="geometry">
            <mxRectangle width="182.4998779296875" height="45" as="alternateBounds" />
          </mxGeometry>
        </mxCell>
        <mxCell id="9e8LTtCVws6JlIJ1aQSF-116" value="" style="shape=partialRectangle;connectable=0;fillColor=none;top=0;left=0;bottom=0;right=0;align=center;spacingLeft=2;overflow=hidden;fontSize=18;" vertex="1" parent="9e8LTtCVws6JlIJ1aQSF-113">
          <mxGeometry x="266" width="85" height="45" as="geometry">
            <mxRectangle width="85" height="45" as="alternateBounds" />
          </mxGeometry>
        </mxCell>
        <mxCell id="9e8LTtCVws6JlIJ1aQSF-117" style="shape=tableRow;horizontal=0;startSize=0;swimlaneHead=0;swimlaneBody=0;fillColor=none;collapsible=0;dropTarget=0;points=[[0,0.5],[1,0.5]];portConstraint=eastwest;top=0;left=0;right=0;bottom=0;align=center;fontSize=18;" vertex="1" parent="9e8LTtCVws6JlIJ1aQSF-96">
          <mxGeometry y="238" width="351" height="45" as="geometry" />
        </mxCell>
        <mxCell id="9e8LTtCVws6JlIJ1aQSF-118" value="string" style="shape=partialRectangle;connectable=0;fillColor=none;top=0;left=0;bottom=0;right=0;align=center;spacingLeft=2;overflow=hidden;fontSize=18;" vertex="1" parent="9e8LTtCVws6JlIJ1aQSF-117">
          <mxGeometry width="83.5001220703125" height="45" as="geometry">
            <mxRectangle width="83.5001220703125" height="45" as="alternateBounds" />
          </mxGeometry>
        </mxCell>
        <mxCell id="9e8LTtCVws6JlIJ1aQSF-119" value="content" style="shape=partialRectangle;connectable=0;fillColor=none;top=0;left=0;bottom=0;right=0;align=center;spacingLeft=2;overflow=hidden;fontSize=18;" vertex="1" parent="9e8LTtCVws6JlIJ1aQSF-117">
          <mxGeometry x="83.5001220703125" width="182.4998779296875" height="45" as="geometry">
            <mxRectangle width="182.4998779296875" height="45" as="alternateBounds" />
          </mxGeometry>
        </mxCell>
        <mxCell id="9e8LTtCVws6JlIJ1aQSF-120" value="" style="shape=partialRectangle;connectable=0;fillColor=none;top=0;left=0;bottom=0;right=0;align=center;spacingLeft=2;overflow=hidden;fontSize=18;" vertex="1" parent="9e8LTtCVws6JlIJ1aQSF-117">
          <mxGeometry x="266" width="85" height="45" as="geometry">
            <mxRectangle width="85" height="45" as="alternateBounds" />
          </mxGeometry>
        </mxCell>
        <mxCell id="9e8LTtCVws6JlIJ1aQSF-121" style="shape=tableRow;horizontal=0;startSize=0;swimlaneHead=0;swimlaneBody=0;fillColor=none;collapsible=0;dropTarget=0;points=[[0,0.5],[1,0.5]];portConstraint=eastwest;top=0;left=0;right=0;bottom=0;align=center;fontSize=18;" vertex="1" parent="9e8LTtCVws6JlIJ1aQSF-96">
          <mxGeometry y="283" width="351" height="45" as="geometry" />
        </mxCell>
        <mxCell id="9e8LTtCVws6JlIJ1aQSF-122" value="datetime" style="shape=partialRectangle;connectable=0;fillColor=none;top=0;left=0;bottom=0;right=0;align=center;spacingLeft=2;overflow=hidden;fontSize=18;" vertex="1" parent="9e8LTtCVws6JlIJ1aQSF-121">
          <mxGeometry width="83.5001220703125" height="45" as="geometry">
            <mxRectangle width="83.5001220703125" height="45" as="alternateBounds" />
          </mxGeometry>
        </mxCell>
        <mxCell id="9e8LTtCVws6JlIJ1aQSF-123" value="createdAt" style="shape=partialRectangle;connectable=0;fillColor=none;top=0;left=0;bottom=0;right=0;align=center;spacingLeft=2;overflow=hidden;fontSize=18;" vertex="1" parent="9e8LTtCVws6JlIJ1aQSF-121">
          <mxGeometry x="83.5001220703125" width="182.4998779296875" height="45" as="geometry">
            <mxRectangle width="182.4998779296875" height="45" as="alternateBounds" />
          </mxGeometry>
        </mxCell>
        <mxCell id="9e8LTtCVws6JlIJ1aQSF-124" value="" style="shape=partialRectangle;connectable=0;fillColor=none;top=0;left=0;bottom=0;right=0;align=center;spacingLeft=2;overflow=hidden;fontSize=18;" vertex="1" parent="9e8LTtCVws6JlIJ1aQSF-121">
          <mxGeometry x="266" width="85" height="45" as="geometry">
            <mxRectangle width="85" height="45" as="alternateBounds" />
          </mxGeometry>
        </mxCell>
        <mxCell id="9e8LTtCVws6JlIJ1aQSF-125" style="shape=tableRow;horizontal=0;startSize=0;swimlaneHead=0;swimlaneBody=0;fillColor=none;collapsible=0;dropTarget=0;points=[[0,0.5],[1,0.5]];portConstraint=eastwest;top=0;left=0;right=0;bottom=0;align=center;fontSize=18;" vertex="1" parent="9e8LTtCVws6JlIJ1aQSF-96">
          <mxGeometry y="328" width="351" height="45" as="geometry" />
        </mxCell>
        <mxCell id="9e8LTtCVws6JlIJ1aQSF-126" value="string" style="shape=partialRectangle;connectable=0;fillColor=none;top=0;left=0;bottom=0;right=0;align=center;spacingLeft=2;overflow=hidden;fontSize=18;" vertex="1" parent="9e8LTtCVws6JlIJ1aQSF-125">
          <mxGeometry width="83.5001220703125" height="45" as="geometry">
            <mxRectangle width="83.5001220703125" height="45" as="alternateBounds" />
          </mxGeometry>
        </mxCell>
        <mxCell id="9e8LTtCVws6JlIJ1aQSF-127" value="parentCommentId" style="shape=partialRectangle;connectable=0;fillColor=none;top=0;left=0;bottom=0;right=0;align=center;spacingLeft=2;overflow=hidden;fontSize=18;" vertex="1" parent="9e8LTtCVws6JlIJ1aQSF-125">
          <mxGeometry x="83.5001220703125" width="182.4998779296875" height="45" as="geometry">
            <mxRectangle width="182.4998779296875" height="45" as="alternateBounds" />
          </mxGeometry>
        </mxCell>
        <mxCell id="9e8LTtCVws6JlIJ1aQSF-128" value="" style="shape=partialRectangle;connectable=0;fillColor=none;top=0;left=0;bottom=0;right=0;align=center;spacingLeft=2;overflow=hidden;fontSize=18;" vertex="1" parent="9e8LTtCVws6JlIJ1aQSF-125">
          <mxGeometry x="266" width="85" height="45" as="geometry">
            <mxRectangle width="85" height="45" as="alternateBounds" />
          </mxGeometry>
        </mxCell>
        <mxCell id="9e8LTtCVws6JlIJ1aQSF-129" style="shape=tableRow;horizontal=0;startSize=0;swimlaneHead=0;swimlaneBody=0;fillColor=none;collapsible=0;dropTarget=0;points=[[0,0.5],[1,0.5]];portConstraint=eastwest;top=0;left=0;right=0;bottom=0;align=center;fontSize=18;" vertex="1" parent="9e8LTtCVws6JlIJ1aQSF-96">
          <mxGeometry y="373" width="351" height="45" as="geometry" />
        </mxCell>
        <mxCell id="9e8LTtCVws6JlIJ1aQSF-130" value="int" style="shape=partialRectangle;connectable=0;fillColor=none;top=0;left=0;bottom=0;right=0;align=center;spacingLeft=2;overflow=hidden;fontSize=18;" vertex="1" parent="9e8LTtCVws6JlIJ1aQSF-129">
          <mxGeometry width="83.5001220703125" height="45" as="geometry">
            <mxRectangle width="83.5001220703125" height="45" as="alternateBounds" />
          </mxGeometry>
        </mxCell>
        <mxCell id="9e8LTtCVws6JlIJ1aQSF-131" value="replyCount" style="shape=partialRectangle;connectable=0;fillColor=none;top=0;left=0;bottom=0;right=0;align=center;spacingLeft=2;overflow=hidden;fontSize=18;" vertex="1" parent="9e8LTtCVws6JlIJ1aQSF-129">
          <mxGeometry x="83.5001220703125" width="182.4998779296875" height="45" as="geometry">
            <mxRectangle width="182.4998779296875" height="45" as="alternateBounds" />
          </mxGeometry>
        </mxCell>
        <mxCell id="9e8LTtCVws6JlIJ1aQSF-132" value="" style="shape=partialRectangle;connectable=0;fillColor=none;top=0;left=0;bottom=0;right=0;align=center;spacingLeft=2;overflow=hidden;fontSize=18;" vertex="1" parent="9e8LTtCVws6JlIJ1aQSF-129">
          <mxGeometry x="266" width="85" height="45" as="geometry">
            <mxRectangle width="85" height="45" as="alternateBounds" />
          </mxGeometry>
        </mxCell>
        <mxCell id="9e8LTtCVws6JlIJ1aQSF-133" value="ALERTS" style="shape=table;startSize=25;container=1;collapsible=0;childLayout=tableLayout;fixedRows=1;rowLines=1;fontStyle=1;align=center;resizeLast=1;fontSize=18;fillColor=#bac8d3;strokeColor=#23445d;" vertex="1" parent="1">
          <mxGeometry x="899" y="600" width="288" height="641" as="geometry" />
        </mxCell>
        <mxCell id="9e8LTtCVws6JlIJ1aQSF-134" style="shape=tableRow;horizontal=0;startSize=0;swimlaneHead=0;swimlaneBody=0;fillColor=none;collapsible=0;dropTarget=0;points=[[0,0.5],[1,0.5]];portConstraint=eastwest;top=0;left=0;right=0;bottom=0;align=center;fontSize=18;" vertex="1" parent="9e8LTtCVws6JlIJ1aQSF-133">
          <mxGeometry y="25" width="288" height="44" as="geometry" />
        </mxCell>
        <mxCell id="9e8LTtCVws6JlIJ1aQSF-135" value="string" style="shape=partialRectangle;connectable=0;fillColor=none;top=0;left=0;bottom=0;right=0;align=center;spacingLeft=2;overflow=hidden;fontSize=18;" vertex="1" parent="9e8LTtCVws6JlIJ1aQSF-134">
          <mxGeometry width="80.9285888671875" height="44" as="geometry">
            <mxRectangle width="80.9285888671875" height="44" as="alternateBounds" />
          </mxGeometry>
        </mxCell>
        <mxCell id="9e8LTtCVws6JlIJ1aQSF-136" value="alertId" style="shape=partialRectangle;connectable=0;fillColor=none;top=0;left=0;bottom=0;right=0;align=center;spacingLeft=2;overflow=hidden;fontSize=18;" vertex="1" parent="9e8LTtCVws6JlIJ1aQSF-134">
          <mxGeometry x="80.9285888671875" width="144.28564453125" height="44" as="geometry">
            <mxRectangle width="144.28564453125" height="44" as="alternateBounds" />
          </mxGeometry>
        </mxCell>
        <mxCell id="9e8LTtCVws6JlIJ1aQSF-137" value="PK" style="shape=partialRectangle;connectable=0;fillColor=none;top=0;left=0;bottom=0;right=0;align=center;spacingLeft=2;overflow=hidden;fontSize=18;" vertex="1" parent="9e8LTtCVws6JlIJ1aQSF-134">
          <mxGeometry x="225.2142333984375" width="62.7857666015625" height="44" as="geometry">
            <mxRectangle width="62.7857666015625" height="44" as="alternateBounds" />
          </mxGeometry>
        </mxCell>
        <mxCell id="9e8LTtCVws6JlIJ1aQSF-138" style="shape=tableRow;horizontal=0;startSize=0;swimlaneHead=0;swimlaneBody=0;fillColor=none;collapsible=0;dropTarget=0;points=[[0,0.5],[1,0.5]];portConstraint=eastwest;top=0;left=0;right=0;bottom=0;align=center;fontSize=18;" vertex="1" parent="9e8LTtCVws6JlIJ1aQSF-133">
          <mxGeometry y="69" width="288" height="44" as="geometry" />
        </mxCell>
        <mxCell id="9e8LTtCVws6JlIJ1aQSF-139" value="string" style="shape=partialRectangle;connectable=0;fillColor=none;top=0;left=0;bottom=0;right=0;align=center;spacingLeft=2;overflow=hidden;fontSize=18;" vertex="1" parent="9e8LTtCVws6JlIJ1aQSF-138">
          <mxGeometry width="80.9285888671875" height="44" as="geometry">
            <mxRectangle width="80.9285888671875" height="44" as="alternateBounds" />
          </mxGeometry>
        </mxCell>
        <mxCell id="9e8LTtCVws6JlIJ1aQSF-140" value="userId" style="shape=partialRectangle;connectable=0;fillColor=none;top=0;left=0;bottom=0;right=0;align=center;spacingLeft=2;overflow=hidden;fontSize=18;" vertex="1" parent="9e8LTtCVws6JlIJ1aQSF-138">
          <mxGeometry x="80.9285888671875" width="144.28564453125" height="44" as="geometry">
            <mxRectangle width="144.28564453125" height="44" as="alternateBounds" />
          </mxGeometry>
        </mxCell>
        <mxCell id="9e8LTtCVws6JlIJ1aQSF-141" value="FK" style="shape=partialRectangle;connectable=0;fillColor=none;top=0;left=0;bottom=0;right=0;align=center;spacingLeft=2;overflow=hidden;fontSize=18;" vertex="1" parent="9e8LTtCVws6JlIJ1aQSF-138">
          <mxGeometry x="225.2142333984375" width="62.7857666015625" height="44" as="geometry">
            <mxRectangle width="62.7857666015625" height="44" as="alternateBounds" />
          </mxGeometry>
        </mxCell>
        <mxCell id="9e8LTtCVws6JlIJ1aQSF-142" style="shape=tableRow;horizontal=0;startSize=0;swimlaneHead=0;swimlaneBody=0;fillColor=none;collapsible=0;dropTarget=0;points=[[0,0.5],[1,0.5]];portConstraint=eastwest;top=0;left=0;right=0;bottom=0;align=center;fontSize=18;" vertex="1" parent="9e8LTtCVws6JlIJ1aQSF-133">
          <mxGeometry y="113" width="288" height="44" as="geometry" />
        </mxCell>
        <mxCell id="9e8LTtCVws6JlIJ1aQSF-143" value="string" style="shape=partialRectangle;connectable=0;fillColor=none;top=0;left=0;bottom=0;right=0;align=center;spacingLeft=2;overflow=hidden;fontSize=18;" vertex="1" parent="9e8LTtCVws6JlIJ1aQSF-142">
          <mxGeometry width="80.9285888671875" height="44" as="geometry">
            <mxRectangle width="80.9285888671875" height="44" as="alternateBounds" />
          </mxGeometry>
        </mxCell>
        <mxCell id="9e8LTtCVws6JlIJ1aQSF-144" value="userName" style="shape=partialRectangle;connectable=0;fillColor=none;top=0;left=0;bottom=0;right=0;align=center;spacingLeft=2;overflow=hidden;fontSize=18;" vertex="1" parent="9e8LTtCVws6JlIJ1aQSF-142">
          <mxGeometry x="80.9285888671875" width="144.28564453125" height="44" as="geometry">
            <mxRectangle width="144.28564453125" height="44" as="alternateBounds" />
          </mxGeometry>
        </mxCell>
        <mxCell id="9e8LTtCVws6JlIJ1aQSF-145" value="" style="shape=partialRectangle;connectable=0;fillColor=none;top=0;left=0;bottom=0;right=0;align=center;spacingLeft=2;overflow=hidden;fontSize=18;" vertex="1" parent="9e8LTtCVws6JlIJ1aQSF-142">
          <mxGeometry x="225.2142333984375" width="62.7857666015625" height="44" as="geometry">
            <mxRectangle width="62.7857666015625" height="44" as="alternateBounds" />
          </mxGeometry>
        </mxCell>
        <mxCell id="9e8LTtCVws6JlIJ1aQSF-146" style="shape=tableRow;horizontal=0;startSize=0;swimlaneHead=0;swimlaneBody=0;fillColor=none;collapsible=0;dropTarget=0;points=[[0,0.5],[1,0.5]];portConstraint=eastwest;top=0;left=0;right=0;bottom=0;align=center;fontSize=18;" vertex="1" parent="9e8LTtCVws6JlIJ1aQSF-133">
          <mxGeometry y="157" width="288" height="44" as="geometry" />
        </mxCell>
        <mxCell id="9e8LTtCVws6JlIJ1aQSF-147" value="string" style="shape=partialRectangle;connectable=0;fillColor=none;top=0;left=0;bottom=0;right=0;align=center;spacingLeft=2;overflow=hidden;fontSize=18;" vertex="1" parent="9e8LTtCVws6JlIJ1aQSF-146">
          <mxGeometry width="80.9285888671875" height="44" as="geometry">
            <mxRectangle width="80.9285888671875" height="44" as="alternateBounds" />
          </mxGeometry>
        </mxCell>
        <mxCell id="9e8LTtCVws6JlIJ1aQSF-148" value="userPhone" style="shape=partialRectangle;connectable=0;fillColor=none;top=0;left=0;bottom=0;right=0;align=center;spacingLeft=2;overflow=hidden;fontSize=18;" vertex="1" parent="9e8LTtCVws6JlIJ1aQSF-146">
          <mxGeometry x="80.9285888671875" width="144.28564453125" height="44" as="geometry">
            <mxRectangle width="144.28564453125" height="44" as="alternateBounds" />
          </mxGeometry>
        </mxCell>
        <mxCell id="9e8LTtCVws6JlIJ1aQSF-149" value="" style="shape=partialRectangle;connectable=0;fillColor=none;top=0;left=0;bottom=0;right=0;align=center;spacingLeft=2;overflow=hidden;fontSize=18;" vertex="1" parent="9e8LTtCVws6JlIJ1aQSF-146">
          <mxGeometry x="225.2142333984375" width="62.7857666015625" height="44" as="geometry">
            <mxRectangle width="62.7857666015625" height="44" as="alternateBounds" />
          </mxGeometry>
        </mxCell>
        <mxCell id="9e8LTtCVws6JlIJ1aQSF-150" style="shape=tableRow;horizontal=0;startSize=0;swimlaneHead=0;swimlaneBody=0;fillColor=none;collapsible=0;dropTarget=0;points=[[0,0.5],[1,0.5]];portConstraint=eastwest;top=0;left=0;right=0;bottom=0;align=center;fontSize=18;" vertex="1" parent="9e8LTtCVws6JlIJ1aQSF-133">
          <mxGeometry y="201" width="288" height="44" as="geometry" />
        </mxCell>
        <mxCell id="9e8LTtCVws6JlIJ1aQSF-151" value="string" style="shape=partialRectangle;connectable=0;fillColor=none;top=0;left=0;bottom=0;right=0;align=center;spacingLeft=2;overflow=hidden;fontSize=18;" vertex="1" parent="9e8LTtCVws6JlIJ1aQSF-150">
          <mxGeometry width="80.9285888671875" height="44" as="geometry">
            <mxRectangle width="80.9285888671875" height="44" as="alternateBounds" />
          </mxGeometry>
        </mxCell>
        <mxCell id="9e8LTtCVws6JlIJ1aQSF-152" value="address" style="shape=partialRectangle;connectable=0;fillColor=none;top=0;left=0;bottom=0;right=0;align=center;spacingLeft=2;overflow=hidden;fontSize=18;" vertex="1" parent="9e8LTtCVws6JlIJ1aQSF-150">
          <mxGeometry x="80.9285888671875" width="144.28564453125" height="44" as="geometry">
            <mxRectangle width="144.28564453125" height="44" as="alternateBounds" />
          </mxGeometry>
        </mxCell>
        <mxCell id="9e8LTtCVws6JlIJ1aQSF-153" value="" style="shape=partialRectangle;connectable=0;fillColor=none;top=0;left=0;bottom=0;right=0;align=center;spacingLeft=2;overflow=hidden;fontSize=18;" vertex="1" parent="9e8LTtCVws6JlIJ1aQSF-150">
          <mxGeometry x="225.2142333984375" width="62.7857666015625" height="44" as="geometry">
            <mxRectangle width="62.7857666015625" height="44" as="alternateBounds" />
          </mxGeometry>
        </mxCell>
        <mxCell id="9e8LTtCVws6JlIJ1aQSF-154" style="shape=tableRow;horizontal=0;startSize=0;swimlaneHead=0;swimlaneBody=0;fillColor=none;collapsible=0;dropTarget=0;points=[[0,0.5],[1,0.5]];portConstraint=eastwest;top=0;left=0;right=0;bottom=0;align=center;fontSize=18;" vertex="1" parent="9e8LTtCVws6JlIJ1aQSF-133">
          <mxGeometry y="245" width="288" height="44" as="geometry" />
        </mxCell>
        <mxCell id="9e8LTtCVws6JlIJ1aQSF-155" value="string" style="shape=partialRectangle;connectable=0;fillColor=none;top=0;left=0;bottom=0;right=0;align=center;spacingLeft=2;overflow=hidden;fontSize=18;" vertex="1" parent="9e8LTtCVws6JlIJ1aQSF-154">
          <mxGeometry width="80.9285888671875" height="44" as="geometry">
            <mxRectangle width="80.9285888671875" height="44" as="alternateBounds" />
          </mxGeometry>
        </mxCell>
        <mxCell id="9e8LTtCVws6JlIJ1aQSF-156" value="pstation" style="shape=partialRectangle;connectable=0;fillColor=none;top=0;left=0;bottom=0;right=0;align=center;spacingLeft=2;overflow=hidden;fontSize=18;" vertex="1" parent="9e8LTtCVws6JlIJ1aQSF-154">
          <mxGeometry x="80.9285888671875" width="144.28564453125" height="44" as="geometry">
            <mxRectangle width="144.28564453125" height="44" as="alternateBounds" />
          </mxGeometry>
        </mxCell>
        <mxCell id="9e8LTtCVws6JlIJ1aQSF-157" value="" style="shape=partialRectangle;connectable=0;fillColor=none;top=0;left=0;bottom=0;right=0;align=center;spacingLeft=2;overflow=hidden;fontSize=18;" vertex="1" parent="9e8LTtCVws6JlIJ1aQSF-154">
          <mxGeometry x="225.2142333984375" width="62.7857666015625" height="44" as="geometry">
            <mxRectangle width="62.7857666015625" height="44" as="alternateBounds" />
          </mxGeometry>
        </mxCell>
        <mxCell id="9e8LTtCVws6JlIJ1aQSF-158" style="shape=tableRow;horizontal=0;startSize=0;swimlaneHead=0;swimlaneBody=0;fillColor=none;collapsible=0;dropTarget=0;points=[[0,0.5],[1,0.5]];portConstraint=eastwest;top=0;left=0;right=0;bottom=0;align=center;fontSize=18;" vertex="1" parent="9e8LTtCVws6JlIJ1aQSF-133">
          <mxGeometry y="289" width="288" height="44" as="geometry" />
        </mxCell>
        <mxCell id="9e8LTtCVws6JlIJ1aQSF-159" value="string" style="shape=partialRectangle;connectable=0;fillColor=none;top=0;left=0;bottom=0;right=0;align=center;spacingLeft=2;overflow=hidden;fontSize=18;" vertex="1" parent="9e8LTtCVws6JlIJ1aQSF-158">
          <mxGeometry width="80.9285888671875" height="44" as="geometry">
            <mxRectangle width="80.9285888671875" height="44" as="alternateBounds" />
          </mxGeometry>
        </mxCell>
        <mxCell id="9e8LTtCVws6JlIJ1aQSF-160" value="hpital" style="shape=partialRectangle;connectable=0;fillColor=none;top=0;left=0;bottom=0;right=0;align=center;spacingLeft=2;overflow=hidden;fontSize=18;" vertex="1" parent="9e8LTtCVws6JlIJ1aQSF-158">
          <mxGeometry x="80.9285888671875" width="144.28564453125" height="44" as="geometry">
            <mxRectangle width="144.28564453125" height="44" as="alternateBounds" />
          </mxGeometry>
        </mxCell>
        <mxCell id="9e8LTtCVws6JlIJ1aQSF-161" value="" style="shape=partialRectangle;connectable=0;fillColor=none;top=0;left=0;bottom=0;right=0;align=center;spacingLeft=2;overflow=hidden;fontSize=18;" vertex="1" parent="9e8LTtCVws6JlIJ1aQSF-158">
          <mxGeometry x="225.2142333984375" width="62.7857666015625" height="44" as="geometry">
            <mxRectangle width="62.7857666015625" height="44" as="alternateBounds" />
          </mxGeometry>
        </mxCell>
        <mxCell id="9e8LTtCVws6JlIJ1aQSF-162" style="shape=tableRow;horizontal=0;startSize=0;swimlaneHead=0;swimlaneBody=0;fillColor=none;collapsible=0;dropTarget=0;points=[[0,0.5],[1,0.5]];portConstraint=eastwest;top=0;left=0;right=0;bottom=0;align=center;fontSize=18;" vertex="1" parent="9e8LTtCVws6JlIJ1aQSF-133">
          <mxGeometry y="333" width="288" height="44" as="geometry" />
        </mxCell>
        <mxCell id="9e8LTtCVws6JlIJ1aQSF-163" value="string" style="shape=partialRectangle;connectable=0;fillColor=none;top=0;left=0;bottom=0;right=0;align=center;spacingLeft=2;overflow=hidden;fontSize=18;" vertex="1" parent="9e8LTtCVws6JlIJ1aQSF-162">
          <mxGeometry width="80.9285888671875" height="44" as="geometry">
            <mxRectangle width="80.9285888671875" height="44" as="alternateBounds" />
          </mxGeometry>
        </mxCell>
        <mxCell id="9e8LTtCVws6JlIJ1aQSF-164" value="message" style="shape=partialRectangle;connectable=0;fillColor=none;top=0;left=0;bottom=0;right=0;align=center;spacingLeft=2;overflow=hidden;fontSize=18;" vertex="1" parent="9e8LTtCVws6JlIJ1aQSF-162">
          <mxGeometry x="80.9285888671875" width="144.28564453125" height="44" as="geometry">
            <mxRectangle width="144.28564453125" height="44" as="alternateBounds" />
          </mxGeometry>
        </mxCell>
        <mxCell id="9e8LTtCVws6JlIJ1aQSF-165" value="" style="shape=partialRectangle;connectable=0;fillColor=none;top=0;left=0;bottom=0;right=0;align=center;spacingLeft=2;overflow=hidden;fontSize=18;" vertex="1" parent="9e8LTtCVws6JlIJ1aQSF-162">
          <mxGeometry x="225.2142333984375" width="62.7857666015625" height="44" as="geometry">
            <mxRectangle width="62.7857666015625" height="44" as="alternateBounds" />
          </mxGeometry>
        </mxCell>
        <mxCell id="9e8LTtCVws6JlIJ1aQSF-166" style="shape=tableRow;horizontal=0;startSize=0;swimlaneHead=0;swimlaneBody=0;fillColor=none;collapsible=0;dropTarget=0;points=[[0,0.5],[1,0.5]];portConstraint=eastwest;top=0;left=0;right=0;bottom=0;align=center;fontSize=18;" vertex="1" parent="9e8LTtCVws6JlIJ1aQSF-133">
          <mxGeometry y="377" width="288" height="44" as="geometry" />
        </mxCell>
        <mxCell id="9e8LTtCVws6JlIJ1aQSF-167" value="string" style="shape=partialRectangle;connectable=0;fillColor=none;top=0;left=0;bottom=0;right=0;align=center;spacingLeft=2;overflow=hidden;fontSize=18;" vertex="1" parent="9e8LTtCVws6JlIJ1aQSF-166">
          <mxGeometry width="80.9285888671875" height="44" as="geometry">
            <mxRectangle width="80.9285888671875" height="44" as="alternateBounds" />
          </mxGeometry>
        </mxCell>
        <mxCell id="9e8LTtCVws6JlIJ1aQSF-168" value="etype" style="shape=partialRectangle;connectable=0;fillColor=none;top=0;left=0;bottom=0;right=0;align=center;spacingLeft=2;overflow=hidden;fontSize=18;" vertex="1" parent="9e8LTtCVws6JlIJ1aQSF-166">
          <mxGeometry x="80.9285888671875" width="144.28564453125" height="44" as="geometry">
            <mxRectangle width="144.28564453125" height="44" as="alternateBounds" />
          </mxGeometry>
        </mxCell>
        <mxCell id="9e8LTtCVws6JlIJ1aQSF-169" value="" style="shape=partialRectangle;connectable=0;fillColor=none;top=0;left=0;bottom=0;right=0;align=center;spacingLeft=2;overflow=hidden;fontSize=18;" vertex="1" parent="9e8LTtCVws6JlIJ1aQSF-166">
          <mxGeometry x="225.2142333984375" width="62.7857666015625" height="44" as="geometry">
            <mxRectangle width="62.7857666015625" height="44" as="alternateBounds" />
          </mxGeometry>
        </mxCell>
        <mxCell id="9e8LTtCVws6JlIJ1aQSF-170" style="shape=tableRow;horizontal=0;startSize=0;swimlaneHead=0;swimlaneBody=0;fillColor=none;collapsible=0;dropTarget=0;points=[[0,0.5],[1,0.5]];portConstraint=eastwest;top=0;left=0;right=0;bottom=0;align=center;fontSize=18;" vertex="1" parent="9e8LTtCVws6JlIJ1aQSF-133">
          <mxGeometry y="421" width="288" height="44" as="geometry" />
        </mxCell>
        <mxCell id="9e8LTtCVws6JlIJ1aQSF-171" value="string" style="shape=partialRectangle;connectable=0;fillColor=none;top=0;left=0;bottom=0;right=0;align=center;spacingLeft=2;overflow=hidden;fontSize=18;" vertex="1" parent="9e8LTtCVws6JlIJ1aQSF-170">
          <mxGeometry width="80.9285888671875" height="44" as="geometry">
            <mxRectangle width="80.9285888671875" height="44" as="alternateBounds" />
          </mxGeometry>
        </mxCell>
        <mxCell id="9e8LTtCVws6JlIJ1aQSF-172" value="status" style="shape=partialRectangle;connectable=0;fillColor=none;top=0;left=0;bottom=0;right=0;align=center;spacingLeft=2;overflow=hidden;fontSize=18;" vertex="1" parent="9e8LTtCVws6JlIJ1aQSF-170">
          <mxGeometry x="80.9285888671875" width="144.28564453125" height="44" as="geometry">
            <mxRectangle width="144.28564453125" height="44" as="alternateBounds" />
          </mxGeometry>
        </mxCell>
        <mxCell id="9e8LTtCVws6JlIJ1aQSF-173" value="" style="shape=partialRectangle;connectable=0;fillColor=none;top=0;left=0;bottom=0;right=0;align=center;spacingLeft=2;overflow=hidden;fontSize=18;" vertex="1" parent="9e8LTtCVws6JlIJ1aQSF-170">
          <mxGeometry x="225.2142333984375" width="62.7857666015625" height="44" as="geometry">
            <mxRectangle width="62.7857666015625" height="44" as="alternateBounds" />
          </mxGeometry>
        </mxCell>
        <mxCell id="9e8LTtCVws6JlIJ1aQSF-174" style="shape=tableRow;horizontal=0;startSize=0;swimlaneHead=0;swimlaneBody=0;fillColor=none;collapsible=0;dropTarget=0;points=[[0,0.5],[1,0.5]];portConstraint=eastwest;top=0;left=0;right=0;bottom=0;align=center;fontSize=18;" vertex="1" parent="9e8LTtCVws6JlIJ1aQSF-133">
          <mxGeometry y="465" width="288" height="44" as="geometry" />
        </mxCell>
        <mxCell id="9e8LTtCVws6JlIJ1aQSF-175" value="datetime" style="shape=partialRectangle;connectable=0;fillColor=none;top=0;left=0;bottom=0;right=0;align=center;spacingLeft=2;overflow=hidden;fontSize=18;" vertex="1" parent="9e8LTtCVws6JlIJ1aQSF-174">
          <mxGeometry width="80.9285888671875" height="44" as="geometry">
            <mxRectangle width="80.9285888671875" height="44" as="alternateBounds" />
          </mxGeometry>
        </mxCell>
        <mxCell id="9e8LTtCVws6JlIJ1aQSF-176" value="timestamp" style="shape=partialRectangle;connectable=0;fillColor=none;top=0;left=0;bottom=0;right=0;align=center;spacingLeft=2;overflow=hidden;fontSize=18;" vertex="1" parent="9e8LTtCVws6JlIJ1aQSF-174">
          <mxGeometry x="80.9285888671875" width="144.28564453125" height="44" as="geometry">
            <mxRectangle width="144.28564453125" height="44" as="alternateBounds" />
          </mxGeometry>
        </mxCell>
        <mxCell id="9e8LTtCVws6JlIJ1aQSF-177" value="" style="shape=partialRectangle;connectable=0;fillColor=none;top=0;left=0;bottom=0;right=0;align=center;spacingLeft=2;overflow=hidden;fontSize=18;" vertex="1" parent="9e8LTtCVws6JlIJ1aQSF-174">
          <mxGeometry x="225.2142333984375" width="62.7857666015625" height="44" as="geometry">
            <mxRectangle width="62.7857666015625" height="44" as="alternateBounds" />
          </mxGeometry>
        </mxCell>
        <mxCell id="9e8LTtCVws6JlIJ1aQSF-178" style="shape=tableRow;horizontal=0;startSize=0;swimlaneHead=0;swimlaneBody=0;fillColor=none;collapsible=0;dropTarget=0;points=[[0,0.5],[1,0.5]];portConstraint=eastwest;top=0;left=0;right=0;bottom=0;align=center;fontSize=18;" vertex="1" parent="9e8LTtCVws6JlIJ1aQSF-133">
          <mxGeometry y="509" width="288" height="44" as="geometry" />
        </mxCell>
        <mxCell id="9e8LTtCVws6JlIJ1aQSF-179" value="datetime" style="shape=partialRectangle;connectable=0;fillColor=none;top=0;left=0;bottom=0;right=0;align=center;spacingLeft=2;overflow=hidden;fontSize=18;" vertex="1" parent="9e8LTtCVws6JlIJ1aQSF-178">
          <mxGeometry width="80.9285888671875" height="44" as="geometry">
            <mxRectangle width="80.9285888671875" height="44" as="alternateBounds" />
          </mxGeometry>
        </mxCell>
        <mxCell id="9e8LTtCVws6JlIJ1aQSF-180" value="safeTime" style="shape=partialRectangle;connectable=0;fillColor=none;top=0;left=0;bottom=0;right=0;align=center;spacingLeft=2;overflow=hidden;fontSize=18;" vertex="1" parent="9e8LTtCVws6JlIJ1aQSF-178">
          <mxGeometry x="80.9285888671875" width="144.28564453125" height="44" as="geometry">
            <mxRectangle width="144.28564453125" height="44" as="alternateBounds" />
          </mxGeometry>
        </mxCell>
        <mxCell id="9e8LTtCVws6JlIJ1aQSF-181" value="" style="shape=partialRectangle;connectable=0;fillColor=none;top=0;left=0;bottom=0;right=0;align=center;spacingLeft=2;overflow=hidden;fontSize=18;" vertex="1" parent="9e8LTtCVws6JlIJ1aQSF-178">
          <mxGeometry x="225.2142333984375" width="62.7857666015625" height="44" as="geometry">
            <mxRectangle width="62.7857666015625" height="44" as="alternateBounds" />
          </mxGeometry>
        </mxCell>
        <mxCell id="9e8LTtCVws6JlIJ1aQSF-182" style="shape=tableRow;horizontal=0;startSize=0;swimlaneHead=0;swimlaneBody=0;fillColor=none;collapsible=0;dropTarget=0;points=[[0,0.5],[1,0.5]];portConstraint=eastwest;top=0;left=0;right=0;bottom=0;align=center;fontSize=18;" vertex="1" parent="9e8LTtCVws6JlIJ1aQSF-133">
          <mxGeometry y="553" width="288" height="44" as="geometry" />
        </mxCell>
        <mxCell id="9e8LTtCVws6JlIJ1aQSF-183" value="int" style="shape=partialRectangle;connectable=0;fillColor=none;top=0;left=0;bottom=0;right=0;align=center;spacingLeft=2;overflow=hidden;fontSize=18;" vertex="1" parent="9e8LTtCVws6JlIJ1aQSF-182">
          <mxGeometry width="80.9285888671875" height="44" as="geometry">
            <mxRectangle width="80.9285888671875" height="44" as="alternateBounds" />
          </mxGeometry>
        </mxCell>
        <mxCell id="9e8LTtCVws6JlIJ1aQSF-184" value="severity" style="shape=partialRectangle;connectable=0;fillColor=none;top=0;left=0;bottom=0;right=0;align=center;spacingLeft=2;overflow=hidden;fontSize=18;" vertex="1" parent="9e8LTtCVws6JlIJ1aQSF-182">
          <mxGeometry x="80.9285888671875" width="144.28564453125" height="44" as="geometry">
            <mxRectangle width="144.28564453125" height="44" as="alternateBounds" />
          </mxGeometry>
        </mxCell>
        <mxCell id="9e8LTtCVws6JlIJ1aQSF-185" value="" style="shape=partialRectangle;connectable=0;fillColor=none;top=0;left=0;bottom=0;right=0;align=center;spacingLeft=2;overflow=hidden;fontSize=18;" vertex="1" parent="9e8LTtCVws6JlIJ1aQSF-182">
          <mxGeometry x="225.2142333984375" width="62.7857666015625" height="44" as="geometry">
            <mxRectangle width="62.7857666015625" height="44" as="alternateBounds" />
          </mxGeometry>
        </mxCell>
        <mxCell id="9e8LTtCVws6JlIJ1aQSF-186" style="shape=tableRow;horizontal=0;startSize=0;swimlaneHead=0;swimlaneBody=0;fillColor=none;collapsible=0;dropTarget=0;points=[[0,0.5],[1,0.5]];portConstraint=eastwest;top=0;left=0;right=0;bottom=0;align=center;fontSize=18;" vertex="1" parent="9e8LTtCVws6JlIJ1aQSF-133">
          <mxGeometry y="597" width="288" height="44" as="geometry" />
        </mxCell>
        <mxCell id="9e8LTtCVws6JlIJ1aQSF-187" value="int" style="shape=partialRectangle;connectable=0;fillColor=none;top=0;left=0;bottom=0;right=0;align=center;spacingLeft=2;overflow=hidden;fontSize=18;" vertex="1" parent="9e8LTtCVws6JlIJ1aQSF-186">
          <mxGeometry width="80.9285888671875" height="44" as="geometry">
            <mxRectangle width="80.9285888671875" height="44" as="alternateBounds" />
          </mxGeometry>
        </mxCell>
        <mxCell id="9e8LTtCVws6JlIJ1aQSF-188" value="notified" style="shape=partialRectangle;connectable=0;fillColor=none;top=0;left=0;bottom=0;right=0;align=center;spacingLeft=2;overflow=hidden;fontSize=18;" vertex="1" parent="9e8LTtCVws6JlIJ1aQSF-186">
          <mxGeometry x="80.9285888671875" width="144.28564453125" height="44" as="geometry">
            <mxRectangle width="144.28564453125" height="44" as="alternateBounds" />
          </mxGeometry>
        </mxCell>
        <mxCell id="9e8LTtCVws6JlIJ1aQSF-189" value="" style="shape=partialRectangle;connectable=0;fillColor=none;top=0;left=0;bottom=0;right=0;align=center;spacingLeft=2;overflow=hidden;fontSize=18;" vertex="1" parent="9e8LTtCVws6JlIJ1aQSF-186">
          <mxGeometry x="225.2142333984375" width="62.7857666015625" height="44" as="geometry">
            <mxRectangle width="62.7857666015625" height="44" as="alternateBounds" />
          </mxGeometry>
        </mxCell>
        <mxCell id="9e8LTtCVws6JlIJ1aQSF-190" value="POLICE_STATIONS" style="shape=table;startSize=25;container=1;collapsible=0;childLayout=tableLayout;fixedRows=1;rowLines=1;fontStyle=1;align=center;resizeLast=1;fontSize=18;fillColor=#fad7ac;strokeColor=#b46504;" vertex="1" parent="1">
          <mxGeometry x="950" y="69" width="270" height="214" as="geometry" />
        </mxCell>
        <mxCell id="9e8LTtCVws6JlIJ1aQSF-191" style="shape=tableRow;horizontal=0;startSize=0;swimlaneHead=0;swimlaneBody=0;fillColor=none;collapsible=0;dropTarget=0;points=[[0,0.5],[1,0.5]];portConstraint=eastwest;top=0;left=0;right=0;bottom=0;align=center;fontSize=18;" vertex="1" parent="9e8LTtCVws6JlIJ1aQSF-190">
          <mxGeometry y="25" width="270" height="47" as="geometry" />
        </mxCell>
        <mxCell id="9e8LTtCVws6JlIJ1aQSF-192" value="string" style="shape=partialRectangle;connectable=0;fillColor=none;top=0;left=0;bottom=0;right=0;align=center;spacingLeft=2;overflow=hidden;fontSize=18;" vertex="1" parent="9e8LTtCVws6JlIJ1aQSF-191">
          <mxGeometry width="72.3572998046875" height="47" as="geometry">
            <mxRectangle width="72.3572998046875" height="47" as="alternateBounds" />
          </mxGeometry>
        </mxCell>
        <mxCell id="9e8LTtCVws6JlIJ1aQSF-193" value="id" style="shape=partialRectangle;connectable=0;fillColor=none;top=0;left=0;bottom=0;right=0;align=center;spacingLeft=2;overflow=hidden;fontSize=18;" vertex="1" parent="9e8LTtCVws6JlIJ1aQSF-191">
          <mxGeometry x="72.3572998046875" width="129.6427001953125" height="47" as="geometry">
            <mxRectangle width="129.6427001953125" height="47" as="alternateBounds" />
          </mxGeometry>
        </mxCell>
        <mxCell id="9e8LTtCVws6JlIJ1aQSF-194" value="PK" style="shape=partialRectangle;connectable=0;fillColor=none;top=0;left=0;bottom=0;right=0;align=center;spacingLeft=2;overflow=hidden;fontSize=18;" vertex="1" parent="9e8LTtCVws6JlIJ1aQSF-191">
          <mxGeometry x="202" width="68" height="47" as="geometry">
            <mxRectangle width="68" height="47" as="alternateBounds" />
          </mxGeometry>
        </mxCell>
        <mxCell id="9e8LTtCVws6JlIJ1aQSF-195" style="shape=tableRow;horizontal=0;startSize=0;swimlaneHead=0;swimlaneBody=0;fillColor=none;collapsible=0;dropTarget=0;points=[[0,0.5],[1,0.5]];portConstraint=eastwest;top=0;left=0;right=0;bottom=0;align=center;fontSize=18;" vertex="1" parent="9e8LTtCVws6JlIJ1aQSF-190">
          <mxGeometry y="72" width="270" height="47" as="geometry" />
        </mxCell>
        <mxCell id="9e8LTtCVws6JlIJ1aQSF-196" value="string" style="shape=partialRectangle;connectable=0;fillColor=none;top=0;left=0;bottom=0;right=0;align=center;spacingLeft=2;overflow=hidden;fontSize=18;" vertex="1" parent="9e8LTtCVws6JlIJ1aQSF-195">
          <mxGeometry width="72.3572998046875" height="47" as="geometry">
            <mxRectangle width="72.3572998046875" height="47" as="alternateBounds" />
          </mxGeometry>
        </mxCell>
        <mxCell id="9e8LTtCVws6JlIJ1aQSF-197" value="stationName" style="shape=partialRectangle;connectable=0;fillColor=none;top=0;left=0;bottom=0;right=0;align=center;spacingLeft=2;overflow=hidden;fontSize=18;" vertex="1" parent="9e8LTtCVws6JlIJ1aQSF-195">
          <mxGeometry x="72.3572998046875" width="129.6427001953125" height="47" as="geometry">
            <mxRectangle width="129.6427001953125" height="47" as="alternateBounds" />
          </mxGeometry>
        </mxCell>
        <mxCell id="9e8LTtCVws6JlIJ1aQSF-198" value="" style="shape=partialRectangle;connectable=0;fillColor=none;top=0;left=0;bottom=0;right=0;align=center;spacingLeft=2;overflow=hidden;fontSize=18;" vertex="1" parent="9e8LTtCVws6JlIJ1aQSF-195">
          <mxGeometry x="202" width="68" height="47" as="geometry">
            <mxRectangle width="68" height="47" as="alternateBounds" />
          </mxGeometry>
        </mxCell>
        <mxCell id="9e8LTtCVws6JlIJ1aQSF-199" style="shape=tableRow;horizontal=0;startSize=0;swimlaneHead=0;swimlaneBody=0;fillColor=none;collapsible=0;dropTarget=0;points=[[0,0.5],[1,0.5]];portConstraint=eastwest;top=0;left=0;right=0;bottom=0;align=center;fontSize=18;" vertex="1" parent="9e8LTtCVws6JlIJ1aQSF-190">
          <mxGeometry y="119" width="270" height="47" as="geometry" />
        </mxCell>
        <mxCell id="9e8LTtCVws6JlIJ1aQSF-200" value="string" style="shape=partialRectangle;connectable=0;fillColor=none;top=0;left=0;bottom=0;right=0;align=center;spacingLeft=2;overflow=hidden;fontSize=18;" vertex="1" parent="9e8LTtCVws6JlIJ1aQSF-199">
          <mxGeometry width="72.3572998046875" height="47" as="geometry">
            <mxRectangle width="72.3572998046875" height="47" as="alternateBounds" />
          </mxGeometry>
        </mxCell>
        <mxCell id="9e8LTtCVws6JlIJ1aQSF-201" value="phone" style="shape=partialRectangle;connectable=0;fillColor=none;top=0;left=0;bottom=0;right=0;align=center;spacingLeft=2;overflow=hidden;fontSize=18;" vertex="1" parent="9e8LTtCVws6JlIJ1aQSF-199">
          <mxGeometry x="72.3572998046875" width="129.6427001953125" height="47" as="geometry">
            <mxRectangle width="129.6427001953125" height="47" as="alternateBounds" />
          </mxGeometry>
        </mxCell>
        <mxCell id="9e8LTtCVws6JlIJ1aQSF-202" value="" style="shape=partialRectangle;connectable=0;fillColor=none;top=0;left=0;bottom=0;right=0;align=center;spacingLeft=2;overflow=hidden;fontSize=18;" vertex="1" parent="9e8LTtCVws6JlIJ1aQSF-199">
          <mxGeometry x="202" width="68" height="47" as="geometry">
            <mxRectangle width="68" height="47" as="alternateBounds" />
          </mxGeometry>
        </mxCell>
        <mxCell id="9e8LTtCVws6JlIJ1aQSF-203" style="shape=tableRow;horizontal=0;startSize=0;swimlaneHead=0;swimlaneBody=0;fillColor=none;collapsible=0;dropTarget=0;points=[[0,0.5],[1,0.5]];portConstraint=eastwest;top=0;left=0;right=0;bottom=0;align=center;fontSize=18;" vertex="1" parent="9e8LTtCVws6JlIJ1aQSF-190">
          <mxGeometry y="166" width="270" height="47" as="geometry" />
        </mxCell>
        <mxCell id="9e8LTtCVws6JlIJ1aQSF-204" value="string" style="shape=partialRectangle;connectable=0;fillColor=none;top=0;left=0;bottom=0;right=0;align=center;spacingLeft=2;overflow=hidden;fontSize=18;" vertex="1" parent="9e8LTtCVws6JlIJ1aQSF-203">
          <mxGeometry width="72.3572998046875" height="47" as="geometry">
            <mxRectangle width="72.3572998046875" height="47" as="alternateBounds" />
          </mxGeometry>
        </mxCell>
        <mxCell id="9e8LTtCVws6JlIJ1aQSF-205" value="address" style="shape=partialRectangle;connectable=0;fillColor=none;top=0;left=0;bottom=0;right=0;align=center;spacingLeft=2;overflow=hidden;fontSize=18;" vertex="1" parent="9e8LTtCVws6JlIJ1aQSF-203">
          <mxGeometry x="72.3572998046875" width="129.6427001953125" height="47" as="geometry">
            <mxRectangle width="129.6427001953125" height="47" as="alternateBounds" />
          </mxGeometry>
        </mxCell>
        <mxCell id="9e8LTtCVws6JlIJ1aQSF-206" value="" style="shape=partialRectangle;connectable=0;fillColor=none;top=0;left=0;bottom=0;right=0;align=center;spacingLeft=2;overflow=hidden;fontSize=18;" vertex="1" parent="9e8LTtCVws6JlIJ1aQSF-203">
          <mxGeometry x="202" width="68" height="47" as="geometry">
            <mxRectangle width="68" height="47" as="alternateBounds" />
          </mxGeometry>
        </mxCell>
        <mxCell id="9e8LTtCVws6JlIJ1aQSF-207" value="has" style="startArrow=ERmandOne;startSize=10;;endArrow=ERzeroToMany;endSize=10;;exitX=0;exitY=0.5;entryX=0.5;entryY=0;rounded=0;fontSize=18;align=center;edgeStyle=orthogonalEdgeStyle;exitDx=0;exitDy=0;" edge="1" parent="1" source="9e8LTtCVws6JlIJ1aQSF-14" target="9e8LTtCVws6JlIJ1aQSF-42">
          <mxGeometry relative="1" as="geometry" />
        </mxCell>
        <mxCell id="9e8LTtCVws6JlIJ1aQSF-208" value="creates" style="startArrow=ERmandOne;startSize=10;;endArrow=ERzeroToMany;endSize=10;;exitX=0.13;exitY=1;entryX=0.5;entryY=0;rounded=0;fontSize=18;align=center;edgeStyle=orthogonalEdgeStyle;" edge="1" parent="1" source="9e8LTtCVws6JlIJ1aQSF-1" target="9e8LTtCVws6JlIJ1aQSF-63">
          <mxGeometry relative="1" as="geometry" />
        </mxCell>
        <mxCell id="9e8LTtCVws6JlIJ1aQSF-209" value="has" style="startArrow=ERmandOne;startSize=10;;endArrow=ERzeroToMany;endSize=10;;exitX=0.5;exitY=1;entryX=0.22;entryY=0;rounded=0;fontSize=18;align=center;edgeStyle=orthogonalEdgeStyle;" edge="1" parent="1" source="9e8LTtCVws6JlIJ1aQSF-63" target="9e8LTtCVws6JlIJ1aQSF-96">
          <mxGeometry relative="1" as="geometry" />
        </mxCell>
        <mxCell id="9e8LTtCVws6JlIJ1aQSF-210" value="writes" style="startArrow=ERmandOne;startSize=10;;endArrow=ERzeroToMany;endSize=10;;exitX=1.002;exitY=0.035;entryX=1;entryY=0.5;rounded=0;fontSize=18;align=center;edgeStyle=orthogonalEdgeStyle;entryDx=0;entryDy=0;exitDx=0;exitDy=0;exitPerimeter=0;" edge="1" parent="1" source="9e8LTtCVws6JlIJ1aQSF-38" target="9e8LTtCVws6JlIJ1aQSF-113">
          <mxGeometry relative="1" as="geometry">
            <Array as="points">
              <mxPoint x="576" y="403" />
              <mxPoint x="576" y="1553" />
            </Array>
          </mxGeometry>
        </mxCell>
        <mxCell id="9e8LTtCVws6JlIJ1aQSF-211" value="raises" style="startArrow=ERmandOne;startSize=10;;endArrow=ERzeroToMany;endSize=10;;exitX=1;exitY=0.5;entryX=0;entryY=0.1;rounded=0;fontSize=18;align=center;edgeStyle=orthogonalEdgeStyle;exitDx=0;exitDy=0;" edge="1" parent="1" source="9e8LTtCVws6JlIJ1aQSF-14" target="9e8LTtCVws6JlIJ1aQSF-133">
          <mxGeometry relative="1" as="geometry" />
        </mxCell>
        <mxCell id="9e8LTtCVws6JlIJ1aQSF-212" value="receives" style="startArrow=ERmandOne;startSize=10;;endArrow=ERzeroToMany;endSize=10;;exitX=0.5;exitY=1;entryX=0.64;entryY=0;rounded=0;fontSize=18;align=center;edgeStyle=orthogonalEdgeStyle;" edge="1" parent="1" source="9e8LTtCVws6JlIJ1aQSF-190" target="9e8LTtCVws6JlIJ1aQSF-133">
          <mxGeometry relative="1" as="geometry" />
        </mxCell>
        <mxCell id="9e8LTtCVws6JlIJ1aQSF-213" value="Medical" style="shape=table;startSize=25;container=1;collapsible=0;childLayout=tableLayout;fixedRows=1;rowLines=1;fontStyle=1;align=center;resizeLast=1;fontSize=18;fillColor=#a0522d;fontColor=#ffffff;strokeColor=#6D1F00;" vertex="1" parent="1">
          <mxGeometry x="932" y="1461" width="270" height="214" as="geometry" />
        </mxCell>
        <mxCell id="9e8LTtCVws6JlIJ1aQSF-214" style="shape=tableRow;horizontal=0;startSize=0;swimlaneHead=0;swimlaneBody=0;fillColor=none;collapsible=0;dropTarget=0;points=[[0,0.5],[1,0.5]];portConstraint=eastwest;top=0;left=0;right=0;bottom=0;align=center;fontSize=18;" vertex="1" parent="9e8LTtCVws6JlIJ1aQSF-213">
          <mxGeometry y="25" width="270" height="47" as="geometry" />
        </mxCell>
        <mxCell id="9e8LTtCVws6JlIJ1aQSF-215" value="string" style="shape=partialRectangle;connectable=0;fillColor=none;top=0;left=0;bottom=0;right=0;align=center;spacingLeft=2;overflow=hidden;fontSize=18;" vertex="1" parent="9e8LTtCVws6JlIJ1aQSF-214">
          <mxGeometry width="72.3572998046875" height="47" as="geometry">
            <mxRectangle width="72.3572998046875" height="47" as="alternateBounds" />
          </mxGeometry>
        </mxCell>
        <mxCell id="9e8LTtCVws6JlIJ1aQSF-216" value="id" style="shape=partialRectangle;connectable=0;fillColor=none;top=0;left=0;bottom=0;right=0;align=center;spacingLeft=2;overflow=hidden;fontSize=18;" vertex="1" parent="9e8LTtCVws6JlIJ1aQSF-214">
          <mxGeometry x="72.3572998046875" width="129.6427001953125" height="47" as="geometry">
            <mxRectangle width="129.6427001953125" height="47" as="alternateBounds" />
          </mxGeometry>
        </mxCell>
        <mxCell id="9e8LTtCVws6JlIJ1aQSF-217" value="PK" style="shape=partialRectangle;connectable=0;fillColor=none;top=0;left=0;bottom=0;right=0;align=center;spacingLeft=2;overflow=hidden;fontSize=18;" vertex="1" parent="9e8LTtCVws6JlIJ1aQSF-214">
          <mxGeometry x="202" width="68" height="47" as="geometry">
            <mxRectangle width="68" height="47" as="alternateBounds" />
          </mxGeometry>
        </mxCell>
        <mxCell id="9e8LTtCVws6JlIJ1aQSF-218" style="shape=tableRow;horizontal=0;startSize=0;swimlaneHead=0;swimlaneBody=0;fillColor=none;collapsible=0;dropTarget=0;points=[[0,0.5],[1,0.5]];portConstraint=eastwest;top=0;left=0;right=0;bottom=0;align=center;fontSize=18;" vertex="1" parent="9e8LTtCVws6JlIJ1aQSF-213">
          <mxGeometry y="72" width="270" height="47" as="geometry" />
        </mxCell>
        <mxCell id="9e8LTtCVws6JlIJ1aQSF-219" value="string" style="shape=partialRectangle;connectable=0;fillColor=none;top=0;left=0;bottom=0;right=0;align=center;spacingLeft=2;overflow=hidden;fontSize=18;" vertex="1" parent="9e8LTtCVws6JlIJ1aQSF-218">
          <mxGeometry width="72.3572998046875" height="47" as="geometry">
            <mxRectangle width="72.3572998046875" height="47" as="alternateBounds" />
          </mxGeometry>
        </mxCell>
        <mxCell id="9e8LTtCVws6JlIJ1aQSF-220" value="medicalName" style="shape=partialRectangle;connectable=0;fillColor=none;top=0;left=0;bottom=0;right=0;align=center;spacingLeft=2;overflow=hidden;fontSize=18;" vertex="1" parent="9e8LTtCVws6JlIJ1aQSF-218">
          <mxGeometry x="72.3572998046875" width="129.6427001953125" height="47" as="geometry">
            <mxRectangle width="129.6427001953125" height="47" as="alternateBounds" />
          </mxGeometry>
        </mxCell>
        <mxCell id="9e8LTtCVws6JlIJ1aQSF-221" value="" style="shape=partialRectangle;connectable=0;fillColor=none;top=0;left=0;bottom=0;right=0;align=center;spacingLeft=2;overflow=hidden;fontSize=18;" vertex="1" parent="9e8LTtCVws6JlIJ1aQSF-218">
          <mxGeometry x="202" width="68" height="47" as="geometry">
            <mxRectangle width="68" height="47" as="alternateBounds" />
          </mxGeometry>
        </mxCell>
        <mxCell id="9e8LTtCVws6JlIJ1aQSF-222" style="shape=tableRow;horizontal=0;startSize=0;swimlaneHead=0;swimlaneBody=0;fillColor=none;collapsible=0;dropTarget=0;points=[[0,0.5],[1,0.5]];portConstraint=eastwest;top=0;left=0;right=0;bottom=0;align=center;fontSize=18;" vertex="1" parent="9e8LTtCVws6JlIJ1aQSF-213">
          <mxGeometry y="119" width="270" height="47" as="geometry" />
        </mxCell>
        <mxCell id="9e8LTtCVws6JlIJ1aQSF-223" value="string" style="shape=partialRectangle;connectable=0;fillColor=none;top=0;left=0;bottom=0;right=0;align=center;spacingLeft=2;overflow=hidden;fontSize=18;" vertex="1" parent="9e8LTtCVws6JlIJ1aQSF-222">
          <mxGeometry width="72.3572998046875" height="47" as="geometry">
            <mxRectangle width="72.3572998046875" height="47" as="alternateBounds" />
          </mxGeometry>
        </mxCell>
        <mxCell id="9e8LTtCVws6JlIJ1aQSF-224" value="phone" style="shape=partialRectangle;connectable=0;fillColor=none;top=0;left=0;bottom=0;right=0;align=center;spacingLeft=2;overflow=hidden;fontSize=18;" vertex="1" parent="9e8LTtCVws6JlIJ1aQSF-222">
          <mxGeometry x="72.3572998046875" width="129.6427001953125" height="47" as="geometry">
            <mxRectangle width="129.6427001953125" height="47" as="alternateBounds" />
          </mxGeometry>
        </mxCell>
        <mxCell id="9e8LTtCVws6JlIJ1aQSF-225" value="" style="shape=partialRectangle;connectable=0;fillColor=none;top=0;left=0;bottom=0;right=0;align=center;spacingLeft=2;overflow=hidden;fontSize=18;" vertex="1" parent="9e8LTtCVws6JlIJ1aQSF-222">
          <mxGeometry x="202" width="68" height="47" as="geometry">
            <mxRectangle width="68" height="47" as="alternateBounds" />
          </mxGeometry>
        </mxCell>
        <mxCell id="9e8LTtCVws6JlIJ1aQSF-226" style="shape=tableRow;horizontal=0;startSize=0;swimlaneHead=0;swimlaneBody=0;fillColor=none;collapsible=0;dropTarget=0;points=[[0,0.5],[1,0.5]];portConstraint=eastwest;top=0;left=0;right=0;bottom=0;align=center;fontSize=18;" vertex="1" parent="9e8LTtCVws6JlIJ1aQSF-213">
          <mxGeometry y="166" width="270" height="47" as="geometry" />
        </mxCell>
        <mxCell id="9e8LTtCVws6JlIJ1aQSF-227" value="string" style="shape=partialRectangle;connectable=0;fillColor=none;top=0;left=0;bottom=0;right=0;align=center;spacingLeft=2;overflow=hidden;fontSize=18;" vertex="1" parent="9e8LTtCVws6JlIJ1aQSF-226">
          <mxGeometry width="72.3572998046875" height="47" as="geometry">
            <mxRectangle width="72.3572998046875" height="47" as="alternateBounds" />
          </mxGeometry>
        </mxCell>
        <mxCell id="9e8LTtCVws6JlIJ1aQSF-228" value="address" style="shape=partialRectangle;connectable=0;fillColor=none;top=0;left=0;bottom=0;right=0;align=center;spacingLeft=2;overflow=hidden;fontSize=18;" vertex="1" parent="9e8LTtCVws6JlIJ1aQSF-226">
          <mxGeometry x="72.3572998046875" width="129.6427001953125" height="47" as="geometry">
            <mxRectangle width="129.6427001953125" height="47" as="alternateBounds" />
          </mxGeometry>
        </mxCell>
        <mxCell id="9e8LTtCVws6JlIJ1aQSF-229" value="" style="shape=partialRectangle;connectable=0;fillColor=none;top=0;left=0;bottom=0;right=0;align=center;spacingLeft=2;overflow=hidden;fontSize=18;" vertex="1" parent="9e8LTtCVws6JlIJ1aQSF-226">
          <mxGeometry x="202" width="68" height="47" as="geometry">
            <mxRectangle width="68" height="47" as="alternateBounds" />
          </mxGeometry>
        </mxCell>
        <mxCell id="9e8LTtCVws6JlIJ1aQSF-230" value="receives" style="startArrow=ERmandOne;startSize=10;;endArrow=ERzeroToMany;endSize=10;;entryX=0.5;entryY=0;rounded=0;fontSize=18;align=center;entryDx=0;entryDy=0;edgeStyle=orthogonalEdgeStyle;" edge="1" parent="1" target="9e8LTtCVws6JlIJ1aQSF-213">
          <mxGeometry relative="1" as="geometry">
            <mxPoint x="1067" y="1244" as="sourcePoint" />
            <mxPoint x="1156" y="1416" as="targetPoint" />
          </mxGeometry>
        </mxCell>
      </root>
    </mxGraphModel>
  </diagram>
</mxfile>
